<?xml version="1.0" encoding="UTF-8" standalone="no"?>
<svg
   xmlns:dc="http://purl.org/dc/elements/1.1/"
   xmlns:cc="http://creativecommons.org/ns#"
   xmlns:rdf="http://www.w3.org/1999/02/22-rdf-syntax-ns#"
   xmlns:svg="http://www.w3.org/2000/svg"
   xmlns="http://www.w3.org/2000/svg"
   xmlns:sodipodi="http://sodipodi.sourceforge.net/DTD/sodipodi-0.dtd"
   xmlns:inkscape="http://www.inkscape.org/namespaces/inkscape"
   width="349.99994"
   height="349.99957"
   viewBox="0 0 279.99995 279.99966"
   version="1.1"
   id="svg2"
   inkscape:version="0.91 r13725"
   sodipodi:docname="circuit.svg"
   inkscape:export-filename="/home/drazard/GitHub/BinghamtonACM/img/circuit.png"
   inkscape:export-xdpi="72"
   inkscape:export-ydpi="72">
  <metadata
     id="metadata366">
    <rdf:RDF>
      <cc:Work
         rdf:about="">
        <dc:format>image/svg+xml</dc:format>
        <dc:type
           rdf:resource="http://purl.org/dc/dcmitype/StillImage" />
        <dc:title></dc:title>
      </cc:Work>
    </rdf:RDF>
  </metadata>
  <defs
     id="defs364" />
  <sodipodi:namedview
     pagecolor="#ffffff"
     bordercolor="#666666"
     borderopacity="1"
     objecttolerance="10"
     gridtolerance="10"
     guidetolerance="10"
     inkscape:pageopacity="0"
     inkscape:pageshadow="2"
     inkscape:window-width="1301"
     inkscape:window-height="744"
     id="namedview362"
     showgrid="false"
     inkscape:zoom="1.0788571"
     inkscape:cx="68.44511"
     inkscape:cy="184.12408"
     inkscape:window-x="65"
     inkscape:window-y="24"
     inkscape:window-maximized="1"
     inkscape:current-layer="svg2"
     fit-margin-top="0"
     fit-margin-left="0"
     fit-margin-right="0"
     fit-margin-bottom="0"
     units="px" />
  <path
     d="m 0.00238914,1.4113568e-5 47.62238886,0 C 42.152954,5.0800063 37.04914,10.551999 31.71332,15.78399 c -10.567645,0.024 -21.143293,0 -31.71093086,0.008 l 0,-15.791947565832 z"
     id="path4"
     inkscape:connector-curvature="0"
     style="fill:#14682e" />
  <path
     d="m 47.624778,1.4113568e-5 1.807939,0 C 43.912898,5.0640064 38.945079,10.711999 33.449257,15.799991 c -1.431949,1.439998 -3.591882,1.167999 -5.439824,1.263998 -9.335672,-0.103999 -18.6713594,-0.032 -28.00704386,-0.064 l 0,-1.207998 c 10.56763786,-0.008 21.14328586,0.016 31.71093086,-0.008 C 37.04914,10.551972 42.152954,5.07998 47.624778,-1.2207032e-5 Z"
     id="path6"
     inkscape:connector-curvature="0"
     style="fill:#2fec8d" />
  <path
     d="m 49.432717,1.4113568e-5 9.135688,0 C 58.896399,0.84001277 59.200383,1.6880119 59.480377,2.5440105 50.352685,11.919997 40.961005,21.047983 31.785315,30.383969 c -10.591645,0.07201 -21.191288,0.008 -31.78292586,0.032 l 0,-13.41598 c 9.33568446,0.032 18.67137186,-0.04001 28.00704386,0.06399 1.847942,-0.096 4.007875,0.176 5.439824,-1.263998 C 38.945079,10.711999 43.912898,5.0640064 49.432717,1.4113568e-5 Z"
     id="path8"
     inkscape:connector-curvature="0"
     style="fill:#14682e" />
  <path
     d="m 58.568405,1.4113568e-5 0.679973,0 C 60.408344,0.96001243 61.464314,2.0480109 62.760268,2.8400099 64.792201,3.2160088 66.016159,0.88801243 67.584098,1.4113568e-5 l 1.231961,0 C 67.7041,1.2240121 66.872125,2.7760104 65.440176,3.6640087 63.632239,4.1600082 61.688306,4.048008 59.912361,4.6800071 58.760401,5.3760058 57.824435,6.352005 56.872463,7.2960033 49.952701,14.495993 42.712942,21.391983 35.793175,28.591972 c -1.199955,1.127998 -2.319914,2.471996 -3.871866,3.119995 -1.815943,0.408 -3.695884,0.328 -5.543813,0.344 -8.791704,-0.144 -17.5834049,-0.04 -26.37510686,-0.072 l 0,-1.567998 c 10.59163786,-0.024 21.19128086,0.04 31.78292586,-0.032 C 40.961005,21.047982 50.352685,11.919996 59.480377,2.5440095 59.200383,1.6880109 58.896399,0.84001175 58.568405,1.3101237e-5 Z"
     id="path10"
     inkscape:connector-curvature="0"
     style="fill:#2ad079" />
  <path
     d="m 59.248378,1.4113568e-5 8.33572,0 C 66.016159,0.88801243 64.792201,3.2160088 62.760268,2.8400099 61.464314,2.0480109 60.408344,0.96001243 59.248378,1.4113568e-5 Z"
     id="path12"
     inkscape:connector-curvature="0"
     style="fill:#14682e" />
  <path
     d="m 68.816059,1.4113568e-5 8.407719,0 C 61.904295,14.967992 46.896807,30.27197 31.71332,45.375947 c -10.575646,0.032 -21.143293,0.008 -31.71093086,0.016 l 0,-13.40798 c 8.79170196,0.032 17.58340286,-0.07201 26.37510686,0.072 1.847929,-0.01599 3.72787,0.064 5.543813,-0.344 1.551952,-0.647999 2.671911,-1.991998 3.871866,-3.119995 C 42.712942,21.391984 49.952701,14.495994 56.872463,7.2960053 57.824435,6.352006 58.760401,5.3760078 59.912361,4.6800091 61.688306,4.04801 63.632239,4.1600092 65.440176,3.6640107 66.872125,2.7760114 67.7041,1.2240132 68.816059,1.6138229e-5 Z"
     id="path14"
     inkscape:connector-curvature="0"
     style="fill:#14682e" />
  <path
     d="m 77.223778,1.4113568e-5 1.81594,0 C 65.080184,13.719995 51.304654,27.639974 37.481125,41.495953 c -2.279926,2.095997 -4.30386,5.415991 -7.831738,5.127992 -9.879666,0.016 -19.7673293,-0.032 -29.64699786,-0.024 l 0,-1.207998 c 10.56763786,-0.008 21.13528486,0.016 31.71093086,-0.016 C 46.896807,30.27197 61.904295,14.967992 77.223778,1.4113568e-5 Z"
     id="path16"
     inkscape:connector-curvature="0"
     style="fill:#2fea8c" />
  <path
     d="m 79.039718,1.4113568e-5 15.959449,0 C 96.263091,2.032011 97.87108,3.8080087 99.71902,5.3280061 c 0.111997,9.2639869 0.08016,18.5359729 0.01491,27.7999599 -1.615939,1.455998 -4.159828,2.719996 -3.991897,5.255992 -0.143964,2.671996 2.399982,5.023992 5.047867,4.671993 3.16791,-0.096 5.3518,-4.039994 3.67984,-6.74399 -0.9279,-1.263999 -2.23989,-2.159997 -3.40784,-3.167995 -0.0636,-9.279987 -0.11198,-18.559973 0.0235,-27.8319598 1.80004,-1.583998 3.35195,-3.4079953 4.79991,-5.311992086432 l 20.35932,0 C 127.47659,2.0480109 129.07653,3.8160081 130.91646,5.3280061 c 0.11201,9.2799869 0.0797,18.5599729 0.0154,27.8399589 -1.616,1.439998 -4.1599,2.679997 -3.97586,5.223993 -0.17605,2.935995 2.92783,5.359992 5.73575,4.575993 2.84791,-0.576 4.51183,-4.175994 2.99191,-6.67199 -0.94394,-1.247999 -2.24787,-2.143997 -3.42391,-3.135996 -0.0639,-9.271986 -0.10402,-18.535972 0.0236,-27.8079586 1.78394,-1.6079983 3.33588,-3.439995 4.7919,-5.351992286432 l 10.7115,0 C 147.74705,13.231995 147.79375,26.455975 147.76295,39.687955 c -4.1598,4.143994 -8.32775,8.271989 -12.41557,12.479982 -2.72791,2.911996 -6.55179,4.543994 -8.99968,7.743988 -11.84765,0.152001 -23.6952,0.12 -35.542782,0.016 -1.023963,-1.215998 -1.92793,-2.583996 -3.255877,-3.495994 -2.263953,-1.2 -5.439833,0.072 -6.271804,2.487996 -0.359984,1.663997 -0.0065,3.375995 0.111996,5.047993 -2.983898,3.119995 -6.071793,6.15199 -9.143687,9.191985 -24.079187,0 -48.166376,0 -72.245558207031,0 L 0.00112488,46.599945 c 9.88093282,-0.008 19.76859612,0.04 29.64826212,0.024 3.527878,0.288 5.551812,-3.031995 7.831738,-5.127991 C 51.304654,27.639974 65.080184,13.719995 79.039718,1.4113568e-5 Z"
     id="path18"
     inkscape:connector-curvature="0"
     style="fill:#14682e" />
  <path
     d="m 94.999167,1.4113568e-5 1.135944,0 C 97.167132,1.0640133 98.127072,2.2080108 99.294991,3.1200095 101.71897,4.1040081 103.12693,1.240012 104.72685,1.4113568e-5 l 1.15992,0 C 104.4389,1.9040109 102.88695,3.7280082 101.08701,5.3120062 c -0.13607,9.2719868 -0.088,18.5519728 -0.0242,27.8319598 1.16799,1.007998 2.47985,1.903996 3.40786,3.167995 1.67193,2.703996 -0.51198,6.64799 -3.67991,6.74399 -2.647902,0.351999 -5.191782,-1.999997 -5.047778,-4.671993 -0.168028,-2.535996 2.37591,-3.799994 3.991889,-5.255992 0.06411,-9.263987 0.09596,-18.535973 -0.01523,-27.7999599 C 97.871766,3.8080087 96.263819,2.032011 94.999821,1.4113568e-5 Z"
     id="path20"
     inkscape:connector-curvature="0"
     style="fill:#2ee689" />
  <path
     d="m 96.135111,1.4113568e-5 8.591739,0 C 103.12693,1.240012 101.71897,4.1040081 99.294991,3.1200095 98.127072,2.2080108 97.167132,1.0640133 96.135111,1.4113568e-5 Z"
     id="path22"
     inkscape:connector-curvature="0"
     style="fill:#14682e" />
  <path
     d="m 126.2461,1.4113568e-5 1.10403,0 C 128.35004,1.0880126 129.34203,2.1920109 130.48599,3.1200095 c 2.43995,1.0239978 3.84789,-1.8479977 5.4238,-3.119995386432 l 1.16801,0 C 135.6218,1.9120114 134.06989,3.7440081 132.28592,5.3520064 c -0.128,9.2719866 -0.0877,18.5359726 -0.0239,27.8079586 1.17596,0.991999 2.47991,1.887997 3.42385,3.135996 1.51995,2.495996 -0.14393,6.09599 -2.99189,6.67199 -2.80794,0.783999 -5.9118,-1.639998 -5.73584,-4.575993 -0.18403,-2.543996 2.36,-3.783995 3.97591,-5.223993 0.0639,-9.279986 0.0958,-18.559972 -0.0155,-27.8399589 -1.83996,-1.511998 -3.43991,-3.2799952 -4.67186,-5.327991986432 z"
     id="path24"
     inkscape:connector-curvature="0"
     style="fill:#2ee689" />
  <path
     d="m 127.35013,1.4113568e-5 8.55966,0 C 134.33388,1.2720118 132.92594,4.1440073 130.48599,3.1200095 129.34203,2.1920109 128.35004,1.0880126 127.35013,1.4113568e-5 Z"
     id="path26"
     inkscape:connector-curvature="0"
     style="fill:#14682e" />
  <path
     d="m 147.78937,1.4113568e-5 1.00794,0 c 0,13.527979886432 0.007,27.055959886432 0,40.583940886432 -5.08782,5.047992 -10.1516,10.119984 -15.20741,15.199977 1.17597,1.735997 3.11991,3.511994 2.56789,5.831991 -0.44801,2.031997 -2.49592,3.055995 -3.91186,4.367994 -0.024,12.66398 -0.0795,25.319964 0.0313,37.983943 1.54401,1.34401 3.8719,2.48801 3.95186,4.824 0.35201,2.79199 -2.24792,5.42399 -5.05579,5.03999 -2.52793,-0.08 -4.52787,-2.55999 -4.20787,-5.03999 0.007,-2.352 2.42391,-3.472 3.95982,-4.824 0.0882,-12.631984 0.0798,-25.271962 0,-37.911943 -1.6479,-1.479999 -3.19182,-3.063996 -4.63181,-4.743994 -11.79159,-0.135999 -23.59124,-0.07201 -35.382816,-0.04 -1.095961,1.279998 -1.983937,2.855996 -3.50387,3.671994 -1.647954,0.336001 -3.335875,0.128 -4.991837,0.088 -3.167893,3.023996 -6.231786,6.151992 -9.32768,9.255987 3.12789,3.135995 6.231787,6.30399 9.415669,9.383986 2.135933,-0.024 4.767844,-0.783999 6.423781,0.999998 2.10395,1.999997 1.647963,5.86399 -0.903934,7.271986 -2.391934,1.639997 -6.159813,0.240005 -6.823791,-2.583993 -0.191992,-1.583998 0.06401,-3.167995 0.191992,-4.743992 -3.303517,-3.463997 -6.735405,-6.799992 -10.111284,-10.199987 -23.759202,-0.032 -47.518393,-0.008 -71.27759234,-0.01601 l 0,-1.239998 c 24.07918134,0 48.16637334,0 72.24555634,0 3.071897,-3.039996 6.159791,-6.071991 9.143689,-9.191986 -0.119996,-1.671997 -0.471981,-3.383995 -0.111995,-5.047993 0.831972,-2.415997 4.007867,-3.687995 6.27178,-2.487996 1.327955,0.911999 2.231939,2.279996 3.25591,3.495994 11.847562,0.104 23.695182,0.136001 35.542772,-0.016 2.44795,-3.199994 6.27178,-4.831992 8.99973,-7.743988 4.08785,-4.207993 8.25567,-8.335988 12.41557,-12.479981 0.0314,-13.231981 -0.0152,-26.45596 0.0238,-39.6879418494404 z"
     id="path28"
     inkscape:connector-curvature="0"
     style="fill:#2de387" />
  <path
     d="m 148.79731,1.4113568e-5 13.59963,0 C 162.37284,13.231995 162.44414,26.463976 162.34904,39.687955 c -5.12783,4.799994 -9.78371,10.103985 -15.02351,14.775979 -2.02392,1.919996 -5.88784,2.951996 -5.6638,6.32799 -0.056,2.447997 2.35188,3.727994 3.95185,5.151992 0.10393,12.695982 0.16795,25.399963 -0.04,38.095954 -1.49596,1.336 -3.79983,2.45599 -3.90382,4.73598 -0.29599,2.64801 2.02401,5.24 4.72784,5.08 2.0479,0.152 3.29588,-1.71199 4.59181,-2.968 -0.43999,-0.58399 -0.87994,-1.15999 -1.31996,-1.728 -0.75191,1.35201 -1.29594,3.488 -3.24786,3.392 -3.23191,0.144 -4.64784,-4.67199 -1.72797,-6.19198 1.91999,-1.44801 4.05589,0.248 4.59989,2.19999 0.47195,0.096 1.43191,0.288 1.90398,0.384 -0.82404,-2.024 -2.34399,-3.576 -3.95989,-4.98399 -0.24005,-12.679989 -0.15209,-25.367972 -0.0477,-38.039954 1.67997,-1.527997 4.2559,-3.055995 3.90395,-5.703991 -0.43206,-1.759998 -1.824,-3.063996 -2.86396,-4.487993 5.15186,-5.175993 10.36767,-10.303985 15.47151,-15.527978 -0.0716,-13.39998 -0.007,-26.799959 -0.0311,-40.199939886432 l 14.2315,0 C 177.9817,11.719998 177.8541,23.43198 177.9892,35.151962 c -0.112,1.895997 0.20001,4.103994 -1.19994,5.615992 -2.32796,2.743996 -5.11183,5.055992 -7.58369,7.663989 -2.68001,2.591996 -5.00793,5.711991 -8.42385,7.399988 -1.67993,1.015998 -4.24783,1.783998 -4.2318,4.183994 -0.63194,2.863996 2.08787,4.471994 3.97592,5.991991 0.0393,12.639981 0.0956,25.287962 -0.0313,37.927954 -1.82401,1.424 -4.47187,2.92 -3.96788,5.67199 0,2.89599 3.11991,4.91999 5.80784,4.11198 2.78391,-0.55999 4.18388,-3.86398 3.13586,-6.38399 -0.89592,-1.39199 -2.32794,-2.30399 -3.57588,-3.35198 -0.112,-12.679989 -0.0799,-25.367972 -0.0151,-38.047953 1.57592,-1.439998 4.00785,-2.687996 3.94387,-5.135993 -0.13598,-1.783997 -1.37594,-3.247996 -2.27993,-4.711993 5.20782,-5.207992 10.37562,-10.455984 15.65544,-15.599977 0.0153,-13.495979 -0.007,-26.99196 0,-40.487939886432 l 55.48614,0 C 234.716,3.6800086 234.7326,7.3600029 234.6696,11.039998 c -1.55188,1.415998 -3.87189,2.623997 -3.98387,4.991993 -0.35193,2.887996 2.45591,5.511991 5.31984,4.967992 2.95193,-0.239999 4.9118,-3.687994 3.73592,-6.37599 -0.864,-1.471998 -2.36795,-2.391996 -3.63982,-3.463994 C 235.9815,7.4400033 235.99752,3.7200088 235.99752,1.4113568e-5 l 13.59953,0 C 249.59705,3.7360087 249.61225,7.4800025 249.50935,11.215998 c -1.58394,1.295998 -4.11183,2.367996 -3.98383,4.791993 -0.46396,2.807995 2.11989,5.407992 4.91982,5.047992 2.38391,0.008 3.52789,-2.375996 4.84781,-3.951994 8.23176,-0.152 16.47149,-0.032 24.70337,-0.072 l 0,13.41598 c -8.23988,-0.064 -16.47161,0.12 -24.70337,-0.12 -1.53591,-1.911997 -3.39985,-4.671993 -6.27977,-3.767994 -4.61575,0.767999 -4.73583,8.319987 -0.14397,9.207985 2.96794,1.015999 4.91985,-1.839997 6.53576,-3.775993 8.19977,-0.08 16.39144,-0.016 24.59135,-0.032 l 0,13.43198 c -8.23988,-0.064 -16.47161,0.064 -24.7113,-0.07999 -1.31999,-1.591998 -2.45597,-4.039995 -4.87985,-3.983994 -2.81591,-0.368 -5.35984,2.303996 -4.87184,5.103993 0.0555,3.103995 3.68788,5.039992 6.42381,3.831994 1.42393,-0.848 2.27989,-2.327997 3.31984,-3.567996 8.23974,-0.151999 16.47946,-0.032 24.71934,-0.072 l 0,26.455961 c -3.37607,0.024 -6.74389,0.032 -10.11185,-0.048 -1.55993,-1.727997 -3.15178,-4.375993 -5.88772,-3.831994 -2.55995,0.184 -4.43193,2.719996 -4.06395,5.215992 0.0797,2.311997 2.47193,3.391995 3.99991,4.703993 0.0957,8.175988 0.11201,16.343981 -0.007,24.511974 -1.89598,1.504 -4.64788,3.11199 -3.96795,5.99199 0.25599,4.44 7.11179,5.504 8.83169,1.46401 1.816,-3.128 -1.1039,-5.8 -3.40782,-7.48 -0.14404,-8.095992 -0.10405,-16.191987 -0.031,-24.279974 1.59995,-1.535997 3.11189,-3.151995 4.54384,-4.847992 3.36794,-0.096 6.73577,-0.07999 10.10378,-0.07999 l 0,50.455936 c -3.38405,0.008 -6.76786,0.008 -10.1518,-0.064 -1.616,-1.90399 -3.51986,-4.768 -6.45575,-3.776 -4.24786,0.848 -4.70381,7.47199 -0.67998,8.96799 3.08789,1.55999 5.47181,-1.376 7.12777,-3.552 3.38395,-0.096 6.76777,-0.096 10.15976,-0.088 l 0,15.25598 c -11.67172,-0.016 -23.3514,0.016 -35.02292,-0.024 -4.7999,-4.84 -9.63171,-9.64799 -14.39953,-14.51198 -1.27992,-1.424 -3.00788,-2.39999 -4.97578,-2.216 -35.06288,-0.024 -70.1337,0.12 -105.19651,-0.072 -1.40794,-1.536 -2.86389,-3.024 -4.36782,-4.45599 -0.20797,-8.22399 -0.0311,-16.45598 -0.10399,-24.679976 -20.767605,-0.304004 -41.534883,-0.04002 -62.302183,-0.136001 -3.975861,-0.096 -7.983728,0.384001 -11.927597,-0.208001 -2.247925,-1.111994 -3.655878,-4.231996 -6.519772,-3.719991 -3.007908,0.319994 -4.951832,3.847989 -3.631878,6.567983 0.959963,2.480006 4.10386,3.424016 6.415777,2.304016 1.319952,-0.920008 2.167927,-2.344013 3.1599,-3.57601 24.447167,-0.151997 48.886331,-0.04002 73.333563,-0.06401 -0.0309,7.824 0.10397,15.64799 -0.0798,23.47198 -1.59994,1.47199 -4.07187,2.80799 -3.92785,5.31999 -0.0798,2.544 2.17591,4.82399 4.71982,4.75198 2.47193,0.072 3.77588,-2.35199 5.23183,-3.93598 35.79075,-0.152 71.58957,-0.088 107.38833,-0.032 4.1279,4.232 8.38375,8.32798 12.4716,12.60798 1.24794,1.248 2.47188,2.568 3.99985,3.488 1.71198,0.55199 3.54388,0.42399 5.31987,0.472 10.13566,-0.128 20.27926,-0.032 30.41508,-0.064 l 0,13.67197 c -11.4158,-0.544 -22.87134,0.184 -34.27898,-0.312 -3.4399,-1.40799 -5.51178,-4.91199 -8.26374,-7.30399 -3.20787,-2.90399 -5.7758,-6.61598 -9.48769,-8.88798 -3.67986,-0.62401 -7.43173,-0.19201 -11.13564,-0.264 -32.15886,-0.032 -64.31775,0.064 -96.46874,-0.048 -1.41589,-1.616 -2.64784,-4.168 -5.15977,-3.98399 -2.384,-0.12001 -4.65587,1.82399 -4.64787,4.25599 -0.31192,2.61599 2.008,5.10399 4.63191,5.008 2.48785,0.088 3.7438,-2.35201 5.1598,-3.96801 35.79075,-0.10399 71.58159,-0.032 107.37236,-0.032 5.47983,5.536 11.03966,10.99998 16.50346,16.55997 11.91955,0.04 23.84719,0.008 35.7749,0.016 l 0,13.59998 c -11.67172,-0.016 -23.33534,0.024 -35.00697,-0.024 -4.38383,-4.48798 -8.89566,-8.84798 -13.23152,-13.38397 -1.17599,-1.12 -2.28798,-2.408 -3.79988,-3.08 -3.93579,-0.696 -7.95976,-0.19201 -11.92761,-0.28 -31.8709,-0.064 -63.74183,0.112 -95.60477,-0.088 -1.60793,-2.016 -3.61586,-4.816 -6.61575,-3.784 -4.2079,0.96 -4.53586,7.43999 -0.53604,8.91998 2.99996,1.61601 5.4638,-1.27999 7.08775,-3.41599 35.80684,-0.2 71.61363,-0.08 107.42041,-0.064 5.41585,5.52 10.9516,10.92799 16.35944,16.45597 11.95162,0.12002 23.90327,0.024 35.85494,0.0561 l 0,16.73597 c -1.91215,1.472 -3.75206,3.04799 -5.3359,4.87198 -25.95117,0.19201 -51.9103,-0.056 -77.86146,0.12001 -1.9359,-0.0801 -4.20784,0.19199 -5.63177,-1.40799 -4.53581,-4.344 -8.81569,-8.96799 -13.37551,-13.29599 -28.97504,0.064 -57.95006,0.048 -86.925118,0.008 -1.407945,-1.688 -2.719917,-4.192 -5.287813,-4.016 -2.711909,-0.12799 -5.031837,2.52 -4.607845,5.184 0.215991,3.032 3.895873,5.104 6.583782,3.65599 1.335955,-0.89599 2.231914,-2.27999 3.255877,-3.49599 28.839077,-0.136 57.686087,-0.08 86.533137,-0.032 4.19183,4.43199 8.70366,8.55199 12.8955,12.97598 1.71996,1.6 1.29595,4.09599 1.39197,6.19999 -0.15199,12.55998 0.007,25.11996 -0.0873,37.67994 -1.67195,1.456 -4.2159,2.832 -3.99191,5.408 -0.0397,3.07999 3.44792,5.42399 6.27982,4.23999 2.4879,-0.82399 3.74383,-3.912 2.65594,-6.26399 -0.92805,-1.376 -2.37596,-2.288 -3.63992,-3.32 -0.10401,-14.11998 -0.031,-28.23195 -0.031,-42.35194 27.27912,0.0561 54.56613,-0.072 81.8532,0.064 1.48795,1.84 3.26365,3.432 5.32783,4.616 l 0,3.728 c -1.83996,1.56799 -3.67982,3.13599 -5.35184,4.88799 -21.18328,0.22399 -42.3665,0.14399 -63.5498,0.04 -1.11196,-1.26399 -2.10401,-2.71199 -3.5679,-3.60799 -2.94392,-1.344 -6.59176,1.31999 -6.4638,4.49599 -0.0559,3.168 3.65593,5.736 6.55183,4.328 1.40791,-0.888 2.38389,-2.28001 3.47184,-3.496 21.18327,-0.128 42.37455,-0.176 63.55783,0.024 1.65597,1.70399 3.49605,3.22399 5.35184,4.71198 l 0,8.59999 c -22.99125,-0.0561 -45.97445,0.04 -68.96564,-0.048 -1.39999,-1.74399 -2.77588,-4.37599 -5.43179,-4.008 -2.904,-0.064 -5.11982,3.04 -4.28787,5.784 0.56793,2.79199 4.03984,4.368 6.51978,2.98399 1.29592,-0.91199 2.17588,-2.264 3.18388,-3.45599 22.99122,-0.096 45.99039,-0.016 68.98164,-0.04 l 0,54.98391 -10.13566,0 c -1.19192,-2.024 -2.66389,-3.864 -4.45583,-5.37599 -0.17603,-8.66399 -0.18395,-17.33597 0,-25.99997 1.62394,-1.45599 4.05586,-2.82399 3.91182,-5.34399 0.088,-3.35999 -3.87983,-5.73599 -6.80776,-4.144 -2.3679,0.93601 -3.20787,4.00001 -2.19991,6.208 0.94394,1.352 2.35989,2.256 3.61593,3.27999 0.0957,8.664 0.13597,17.33598 -0.0148,25.99997 -1.90398,1.45599 -3.50388,3.256 -4.62383,5.37599 l -8.35172,0 c -0.0237,-4.488 -0.0637,-8.98399 -0.0151,-13.47198 1.60785,-1.608 4.15174,-3.096 3.85579,-5.71199 0,-3.232 -3.81584,-5.45599 -6.64774,-3.99999 -2.43185,0.95199 -3.17589,3.95999 -2.32791,6.24798 0.94397,1.384 2.43191,2.23999 3.74382,3.24799 0.0797,4.56 0.0477,9.128 0.0554,13.68799 l -13.59956,0 c 0.007,-4.56799 -0.0311,-9.13598 0.0714,-13.70398 1.94392,-1.536 4.75178,-3.31999 3.89584,-6.25599 -0.68799,-4.43199 -7.64773,-4.98399 -9.00776,-0.704 -1.33587,3.11999 1.51999,5.44799 3.71994,7.10399 0.0558,4.52 0.0156,9.03998 0.0237,13.55998 l -55.50213,0 c 0.007,-4.576 -0.0237,-9.15199 0.0556,-13.72798 1.27194,-1.04 2.76785,-1.904 3.6719,-3.312 0.9039,-2.17599 0.007,-5.08799 -2.19199,-6.09599 -1.69592,-0.45599 -3.47987,-0.2 -5.19981,-0.16 -3.59183,-3.20798 -6.94373,-6.65598 -10.26369,-10.13598 0.17601,-1.624 0.43201,-3.264 0.29607,-4.896 -0.83199,-1.50399 -2.35997,-2.41599 -3.61587,-3.50399 -0.22407,-12.71199 -0.12803,-25.43196 -0.056,-38.15194 1.73597,-1.45599 4.34385,-2.912 3.88788,-5.59999 -0.0236,-3.152 -3.71188,-5.176 -6.49582,-3.952 -2.45595,0.856 -3.35191,3.96 -2.44787,6.23999 0.85598,1.456 2.38388,2.31199 3.65584,3.352 0.12797,12.65598 0.0877,25.31196 0.0153,37.96794 -2.18389,1.544 -4.92781,3.61599 -3.83187,6.704 0.81599,3.41599 4.68787,3.32798 7.45575,2.91199 3.4879,3.33599 6.95977,6.70399 10.17566,10.30399 0,1.69598 -0.49598,3.47199 0.0715,5.12799 0.94403,1.344 2.31195,2.27999 3.51991,3.36799 0.0558,4.52 0.0152,9.03998 0.0239,13.55998 l -14.21554,0 c -0.0236,-4.52 -0.0639,-9.03998 0.0236,-13.55198 1.24793,-1.056 2.63188,-2.008 3.56787,-3.37599 1.15197,-2.328 -0.0151,-5.672 -2.6159,-6.392 -1.60796,-0.21599 -3.22388,-0.008 -4.82388,0.064 -3.33584,-3.144 -6.53574,-6.41598 -9.75963,-9.66398 0.376,-1.52 0.85593,-3.04 0.91196,-4.616 -0.46399,-1.984 -2.42394,-3.05599 -3.79182,-4.37599 -0.11207,-12.68798 -0.21607,-25.38396 0.0558,-38.06394 1.59192,-1.408 3.1278,-2.936 3.91188,-4.96 -0.46402,0.088 -1.39993,0.26401 -1.864,0.36 -0.6239,1.624 -2.13593,3.456 -4.08784,2.488 -3.05589,-1.016 -2.66377,-5.82399 0.49601,-6.37599 2.19997,-0.67201 3.23988,1.71199 3.9279,3.30399 0.44799,-0.57599 0.88792,-1.15199 1.3279,-1.72799 -1.27995,-1.26401 -2.5279,-3.12 -4.5758,-2.97599 -3.2159,-0.25601 -5.7598,3.43999 -4.45582,6.35999 0.85586,1.47199 2.35184,2.40799 3.60783,3.50399 0.16799,12.68797 0.13596,25.37596 0.0151,38.06394 -2.0639,1.57599 -4.85585,3.64799 -3.75186,6.66399 0.77592,3.18399 4.4559,3.256 7.08774,3.47199 3.33587,3.14399 6.53586,6.424 9.75167,9.68 -0.0558,1.66398 -0.264,3.36799 0.0795,5.02398 0.86397,1.42401 2.32793,2.328 3.57584,3.392 0.10403,4.56799 0.0636,9.13599 0.0717,13.70397 l -13.59956,0 c 0.007,-4.57599 -0.0238,-9.14398 0.0555,-13.71198 1.51992,-1.296 3.94381,-2.31199 4.00786,-4.61599 0.30397,-1.95999 -0.72801,-4.04799 -2.56794,-4.84799 -1.70392,-0.464 -3.47191,-0.096 -5.19984,-0.088 -3.35187,-3.072 -6.52779,-6.32799 -9.69569,-9.58399 0.29602,-1.79999 0.92005,-3.62399 0.59206,-5.45598 -0.824,-1.58401 -2.40792,-2.536 -3.7119,-3.68 -0.0714,-12.65598 -0.0958,-25.31196 0.007,-37.95994 1.54391,-1.36 3.88785,-2.512 3.95186,-4.856 0.352,-2.80799 -2.24792,-5.488 -5.09584,-5.03199 -3.18385,0.064 -5.09579,3.792 -3.84789,6.576 0.92801,1.35999 2.35187,2.27198 3.61588,3.29598 0.112,12.64 0.0637,25.28797 0.015,37.92795 -2.11194,1.616 -4.95986,3.72 -3.76781,6.80799 0.72789,3.144 4.32779,3.192 6.91171,3.25599 3.4479,3.168 6.75979,6.488 9.93561,9.93599 -0.0553,1.72 -0.27191,3.46399 0.0556,5.17598 0.97597,1.30401 2.38387,2.19201 3.67185,3.17601 0.0556,4.55999 0.0311,9.11999 0.0311,13.67997 l -10.72768,0 c -1.35193,-2.19199 -2.58389,-5.61599 -5.83175,-5.04799 -2.87191,-0.056 -3.83991,2.944 -4.83185,5.04799 l -20.5593,0 c -1.37592,-2.14398 -2.58394,-5.55199 -5.79181,-5.03998 -2.87191,-0.088 -3.831883,2.95199 -4.847839,5.03998 l -16.327349,0 c 2.663907,-2.27999 5.023817,-4.87198 7.495741,-7.33598 0.09598,-10.44798 -0.111989,-20.89597 0.112013,-31.33596 1.591948,-1.472 4.007832,-2.82398 3.911843,-5.30399 0.04806,-3.19199 -3.735856,-5.85599 -6.647751,-4.304 -2.295936,0.95201 -3.623892,3.912 -2.455929,6.192 0.879973,1.38399 2.263926,2.336 3.479884,3.408 0.207994,10.25598 0.03169,20.51996 0.09601,30.78395 -2.639927,2.63999 -5.167841,5.39999 -7.951746,7.89598 l -8.023725,0 c -1.295955,-2.15999 -2.543919,-5.38398 -5.647811,-5.05598 -3.023895,-0.224 -3.935869,3.05599 -5.295816,5.05598 l -8.72778,0 c 4.207855,-3.79999 8.047721,-7.96798 12.055583,-11.96798 -0.01595,-17.87997 -0.05604,-35.75994 0.03207,-53.63992 0.05605,-1.87999 -0.215989,-3.864 -1.71994,-5.16799 -6.479776,-6.57599 -13.127552,-12.99198 -19.559337,-19.61597 0.05604,-2.16799 0.967968,-4.75999 -0.695975,-6.55999 -1.823935,-2.12 -5.543809,-1.936 -7.183755,0.32 -1.583951,1.984 -1.103965,5.24799 1.031963,6.63999 2.407915,1.032 5.559816,0.024 7.471748,2.152 6.46378,6.41599 12.807564,12.94399 19.335344,19.29597 0.09599,16.17597 -0.0064,32.35195 0.05603,48.53593 -0.02406,2.4 0.159996,4.83199 -0.287993,7.20799 -0.815972,1.64 -2.279922,2.83999 -3.535878,4.14399 -3.015897,2.816 -5.775806,5.89599 -8.839698,8.65598 l -47.34976031,0 0,-55.01591 c 2.64757251,0.0239 5.29548281,0.0479 7.93539321,0.11195 1.4319498,1.608 2.9599011,3.11999 4.5838471,4.52799 0.08809,10.08799 0.119995,20.17597 -0.02403,30.26395 -1.583949,1.34401 -3.9998631,2.488 -3.9438647,4.91201 -0.2479915,2.45598 1.7919357,4.80798 4.2718507,4.85598 2.703916,0.33601 5.303825,-2.176 5.015834,-4.90399 0.04797,-2.408 -2.375917,-3.52799 -3.943866,-4.87199 -0.135997,-10.10399 -0.096,-20.20797 -0.02402,-30.31196 1.535948,-1.344 3.879869,-2.472 3.959869,-4.79999 0.399984,-2.83199 -2.223925,-5.42399 -5.047824,-5.02399 -2.375922,0.016 -3.5038851,2.39199 -4.8158428,3.96799 -2.6559111,0.0561 -5.3118207,0.072 -7.96773092,0.0801 l 0,-8.52799 c 1.77587502,-1.624 4.77577392,-2.824 4.77577392,-5.62399 0.1601974,-2.89627 -2.8957001,-4.08027 -4.77563589,-5.59227 l 0,-3.952 c 1.85746819,-1.23209 4.68937299,-2.24009 4.69737219,-4.90408 0.5039823,-3.056 -2.7199083,-4.352 -4.69584169,-5.832 l 0,-17.10397 c 10.19965219,0.48 20.42330619,0.008 30.63096319,0.232 0.991963,1.176 1.871938,2.47999 3.111898,3.42399 1.75194,0.592 3.639873,0.112 5.439814,0.072 18.983352,18.88798 37.926716,37.83195 56.814064,56.81592 -0.09602,1.8 -0.591976,3.68 -0.07177,5.456 1.175943,3.19999 6.09576,3.50399 7.96773,0.81599 1.75992,-2.168 0.95999,-5.91199 -1.67192,-6.97598 -1.72001,-0.44801 -3.495937,-0.272 -5.247864,-0.35201 -18.943457,-18.87197 -37.846818,-37.78395 -56.734174,-56.72792 0.0064,-1.77599 0.22399,-3.58398 -0.191999,-5.32798 -0.895972,-2.392 -3.983861,-3.136 -6.159789,-2.18401 -1.351956,0.944 -2.263929,2.376 -3.295884,3.64001 -10.19969,0.12001 -20.391341,0.024 -30.59099431,0.056 l 0,-13.59998 c 10.20668031,0.032 20.42233131,-0.072 30.62998731,0.064 1.015969,1.23199 1.91994,2.624 3.247892,3.54399 1.671944,0.48 3.439882,0.096 5.143821,0.016 18.959365,18.96797 38.030724,37.83194 56.846088,56.95191 -0.03169,2.592 -0.312008,6.14399 2.77589,7.12799 4.127846,1.92799 8.311746,-3.55999 5.551806,-7.07999 -1.64792,-2.576 -4.887759,-1.688 -7.327708,-1.14399 -18.944426,-18.94368 -37.975776,-37.79965 -56.783137,-56.87163 0.09599,-1.64799 0.303993,-3.30399 0.119987,-4.94399 -0.823971,-1.55199 -2.423915,-2.44799 -3.711876,-3.55199 -0.0064,-1.416 -0.0064,-2.832 0,-4.24799 1.287961,-1.104 2.863909,-2.016 3.703883,-3.54399 0.199989,-1.67201 -0.05606,-3.352 -0.183998,-5.016 2.887897,-3.112 5.911802,-6.08798 8.959701,-9.04798 1.679942,0.11199 3.391884,0.40799 5.063827,0.072 3.111891,-1.064 3.799872,-5.688 1.359953,-7.776 -2.231922,-2.27199 -6.687775,-1.19998 -7.519744,1.90401 -0.207992,1.59199 -0.0064,3.19199 0.06401,4.79198 -2.935896,3.056 -5.951796,6.032 -8.951693,9.01599 -1.69594,-0.0561 -3.423886,-0.32 -5.095827,0.072 -1.351956,0.936 -2.255926,2.344 -3.279895,3.6 -10.207646,0.128 -20.4073,0.032 -30.61495826,0.064 l 0,-15.25598 c 10.19162126,0.048 20.39128426,-0.112 30.58293226,0.088 1.575956,1.824 3.311887,4.584 6.159787,3.83199 3.559888,-0.53599 5.055836,-5.46399 2.471925,-7.93599 -1.695946,-1.97599 -4.463849,-1.07999 -6.679778,-0.91999 -3.023894,-2.84799 -5.951794,-5.8 -8.863698,-8.76799 0.175995,-1.768 0.639978,-3.59199 0.223986,-5.35199 -1.103957,-3.008 -5.479808,-3.672 -7.639735,-1.456 -2.223923,2.128 -1.607945,6.61599 1.439952,7.63998 1.599948,0.28801 3.23989,0.20002 4.863835,0.22401 3.223892,3.57599 8.023726,6.22399 9.383683,11.11999 -10.647639,0.104 -21.295281,0.016 -31.94292059,0.04 l 0,-50.455938 c 23.75919859,0.008 47.51839259,-0.01599 71.27759259,0.016 3.375881,3.399995 6.807772,6.73599 10.111659,10.199986 -0.128002,1.575997 -0.383983,3.159994 -0.191994,4.743992 0.66398,2.824002 4.431827,4.223994 6.823761,2.583997 2.551905,-1.407995 3.007925,-5.271993 0.903983,-7.27199 -1.655962,-1.783997 -4.287865,-1.023998 -6.423789,-0.999998 -3.183895,-3.079996 -6.287789,-6.247991 -9.415691,-9.383986 3.0959,-3.103995 6.159801,-6.231991 9.327685,-9.255986 1.655962,0.04 3.343891,0.248 4.991845,-0.088 1.51995,-0.815999 2.407909,-2.391996 3.503871,-3.671995 11.791564,-0.032 23.591254,-0.096 35.382844,0.04 1.43997,1.679999 2.9839,3.263996 4.63183,4.743994 0.0797,12.639981 0.0877,25.279955 0,37.911944 -1.53601,1.352 -3.95187,2.47199 -3.95989,4.82399 -0.31999,2.48 1.67994,4.95999 4.20786,5.03999 2.80795,0.384 5.40781,-2.24799 5.05587,-5.03999 -0.08,-2.336 -2.40791,-3.47999 -3.95193,-4.82399 -0.11195,-12.663984 -0.0556,-25.319964 -0.0312,-37.983944 1.41602,-1.311999 3.46392,-2.335997 3.91189,-4.367994 0.55202,-2.319997 -1.39193,-4.095994 -2.56791,-5.831991 5.05589,-5.079993 10.11965,-10.151985 15.20752,-15.199977 0.007,-13.52798 0,-27.055961 0,-40.583940648352 z"
     id="path30"
     inkscape:connector-curvature="0"
     style="fill:#14682e" />
  <path
     d="m 162.39694,1.4113568e-5 1.27191,0 C 163.69265,13.399995 163.62895,26.799974 163.69995,40.199954 c -5.10381,5.223993 -10.31961,10.351985 -15.47146,15.527978 1.03999,1.423997 2.43191,2.727995 2.86396,4.487993 0.35193,2.647996 -2.22399,4.175994 -3.9039,5.703991 -0.10406,12.671982 -0.19203,25.359965 0.0476,38.039954 1.61599,1.40799 3.13585,2.95999 3.9599,4.98399 -0.472,-0.096 -1.43194,-0.288 -1.90396,-0.384 -0.54398,-1.95199 -2.6799,-3.648 -4.59983,-2.19999 -2.91992,1.51999 -1.50399,6.33598 1.72791,6.19198 1.95193,0.096 2.49593,-2.03999 3.24789,-3.392 0.44003,0.56801 0.87999,1.14401 1.32,1.728 -1.29593,1.25601 -2.54395,3.12 -4.59186,2.968 -2.70394,0.16 -5.02385,-2.43199 -4.72783,-5.08 0.10397,-2.27999 2.40793,-3.39998 3.90385,-4.73598 0.20797,-12.695991 0.14396,-25.399972 0.0397,-38.095954 -1.59983,-1.423998 -4.00778,-2.703995 -3.95176,-5.151992 -0.22401,-3.375994 3.63983,-4.407994 5.66379,-6.32799 5.23986,-4.671994 9.89564,-9.975985 15.02347,-14.775979 0.0958,-13.223979 0.0237,-26.45596 0.0476,-39.687940886432 z"
     id="path32"
     inkscape:connector-curvature="0"
     style="fill:#2cdb81" />
  <path
     d="m 177.90041,1.4113568e-5 1.29592,0 C 179.18933,13.495994 179.21163,26.991975 179.19633,40.487954 c -5.27984,5.143993 -10.44762,10.391985 -15.65543,15.599977 0.90395,1.463997 2.14383,2.927996 2.27988,4.711993 0.0637,2.447997 -2.36789,3.695995 -3.94382,5.135993 -0.0637,12.679981 -0.0958,25.367964 0.0151,38.047953 1.24795,1.04799 2.67993,1.95999 3.57586,3.35198 1.04801,2.52001 -0.35194,5.824 -3.13588,6.38399 -2.68792,0.80801 -5.80781,-1.21599 -5.80781,-4.11198 -0.50404,-2.75199 2.14388,-4.24799 3.96785,-5.67199 0.12801,-12.639992 0.0716,-25.287973 0.0314,-37.927954 -1.88793,-1.519997 -4.60788,-3.127995 -3.97588,-5.991991 -0.0152,-2.399996 2.55184,-3.167996 4.23181,-4.183994 3.41591,-1.687997 5.74385,-4.807992 8.42375,-7.399988 2.4719,-2.607997 5.25584,-4.919993 7.58366,-7.663989 1.39994,-1.511998 1.08806,-3.719995 1.20003,-5.615992 -0.13598,-11.719982 -0.007,-23.431964 -0.0878,-35.151947886432 z"
     id="path34"
     inkscape:connector-curvature="0"
     style="fill:#2cdc82" />
  <path
     d="m 234.68246,1.4113568e-5 1.31199,0 C 235.99445,3.7200088 235.97935,7.4400033 236.09843,11.159999 c 1.27187,1.071998 2.77589,1.991996 3.63989,3.463994 1.17589,2.687996 -0.78401,6.135991 -3.73592,6.37599 -2.86389,0.543999 -5.67178,-2.079996 -5.31982,-4.967992 0.11202,-2.367996 2.43196,-3.575995 3.98389,-4.991993 0.0637,-3.6799951 0.0476,-7.3599894 0.015,-11.039983886432 z"
     id="path36"
     inkscape:connector-curvature="0"
     style="fill:#2bd87f" />
  <path
     d="m 249.59393,1.4113568e-5 1.26404,0 C 250.84297,3.6800086 250.84297,7.3600029 250.91357,11.039998 c 1.55995,1.455998 3.01595,3.023996 4.39991,4.647993 8.22368,0.184 16.45534,0.016 24.67914,0.096 l 0,1.247999 c -8.23178,0.04 -16.47148,-0.08 -24.70314,0.07201 -1.32001,1.575997 -2.46397,3.959994 -4.84789,3.951994 -2.79992,0.359999 -5.38376,-2.239997 -4.91978,-5.047991 -0.12802,-2.423998 2.39986,-3.495995 3.98385,-4.791993 0.10395,-3.7359954 0.0878,-7.4799902 0.0878,-11.215984800117 z"
     id="path38"
     inkscape:connector-curvature="0"
     style="fill:#2cde83" />
  <path
     d="m 250.85797,1.4113568e-5 8.07966,0 C 260.56955,1.8480118 261.84156,5.0640064 264.82543,4.7360072 267.54535,4.7120052 268.5693,1.7360116 270.08922,1.4113568e-5 l 9.90373,0 0,15.783975886432 c -8.22381,-0.07999 -16.45548,0.088 -24.67916,-0.096 -1.38395,-1.623997 -2.83991,-3.191995 -4.39989,-4.647993 C 250.8423,7.3600029 250.8423,3.6800086 250.8583,1.4113568e-5 Z"
     id="path40"
     inkscape:connector-curvature="0"
     style="fill:#14682e" />
  <path
     d="m 258.93763,1.4113568e-5 1.45594,0 C 261.87353,1.2240121 263.11352,3.9840074 265.47341,3.1040096 266.76143,2.2240107 267.77738,1.0400119 268.92926,1.4113568e-5 l 1.15996,0 C 268.5693,1.7360116 267.54535,4.7120079 264.82543,4.7360072 261.84156,5.0640064 260.56955,1.8480118 258.93763,1.4113568e-5 Z"
     id="path42"
     inkscape:connector-curvature="0"
     style="fill:#2bd87f" />
  <path
     d="m 260.39357,1.4113568e-5 8.53569,0 C 267.77738,1.0400119 266.76143,2.2240107 265.47341,3.1040096 263.11352,3.9840074 261.87353,1.2240121 260.39357,1.4113568e-5 Z"
     id="path44"
     inkscape:connector-curvature="0"
     style="fill:#14682e" />
  <path
     d="m 81.071646,12.959996 c 1.079958,-4.0719953 7.35176,-4.4239948 8.863702,-0.488 1.57594,2.999995 -1.015955,5.663992 -3.487887,6.97599 -0.127988,4.631992 -0.127988,9.263986 -0.0065,13.887979 1.503926,1.167998 3.583876,2.175997 3.86386,4.279994 0.663982,3.063995 -2.455915,6.135991 -5.511814,5.503992 -2.67191,-0.456 -4.695835,-3.495995 -3.719868,-6.103991 0.59997,-1.735998 2.343914,-2.615997 3.695885,-3.703995 0.10398,-4.607993 0.10398,-9.223986 -0.0065,-13.839979 -2.175923,-1.375998 -4.863837,-3.583995 -3.687871,-6.51199 z"
     id="path46"
     inkscape:connector-curvature="0"
     style="fill:#2ad27b" />
  <path
     d="m 111.27862,15.199992 c -0.64793,-3.103995 2.43188,-6.2159909 5.53583,-5.4879925 2.78388,0.5120005 4.86389,3.8959945 3.48789,6.5119915 -0.69602,1.479997 -2.23195,2.247997 -3.45586,3.215994 -0.12805,4.639993 -0.12006,9.279987 -0.007,13.91198 1.35992,1.071999 3.11991,1.943997 3.66387,3.711994 1.2399,3.343996 -2.56789,7.127989 -5.92779,5.895992 -2.46391,-0.672 -3.96787,-3.575996 -3.13589,-5.983992 0.536,-1.767997 2.35194,-2.567996 3.71184,-3.615993 0.12805,-4.647994 0.12805,-9.303987 -0.007,-13.95198 -1.55187,-1.095998 -3.63985,-2.079997 -3.86384,-4.207994 z"
     id="path48"
     inkscape:connector-curvature="0"
     style="fill:#2ad27b" />
  <path
     d="m 84.183548,11.351997 c 2.079934,-0.919998 4.831834,0.656 4.687822,3.023996 0.264017,2.791996 -3.727848,4.463994 -5.53579,2.311997 -1.719944,-1.479998 -1.01598,-4.319994 0.847968,-5.335993 z"
     id="path50"
     inkscape:connector-curvature="0"
     style="fill:#14682e" />
  <path
     d="m 114.5105,11.391997 c 2.056,-0.967998 4.83987,0.647999 4.70386,2.983996 0.23999,2.535997 -3.18379,4.295994 -5.12785,2.703996 -2.02387,-1.303998 -1.75193,-4.679993 0.42399,-5.687992 z"
     id="path52"
     inkscape:connector-curvature="0"
     style="fill:#14682e" />
  <path
     d="m 203.50752,12.263997 c 2.7999,-1.599999 6.8638,0.359999 6.94379,3.687994 0.53592,3.375995 -3.33594,6.103991 -6.39184,4.767993 -3.56786,-1.191999 -3.95184,-6.807991 -0.55195,-8.455987 z"
     id="path54"
     inkscape:connector-curvature="0"
     style="fill:#2cdd82" />
  <path
     d="m 218.54701,12.127996 c 3.11989,-1.543997 7.21576,1.12 6.71181,4.663993 -0.14404,3.679996 -5.01587,5.599992 -7.68776,3.159996 -2.62398,-1.967996 -2.008,-6.53599 0.97595,-7.823989 z"
     id="path56"
     inkscape:connector-curvature="0"
     style="fill:#2cdd82" />
  <path
     d="m 204.41949,13.343995 c 1.94398,-1.055999 4.46384,0.591999 4.69583,2.679996 0.40002,2.543996 -2.98385,4.799992 -5.08783,3.127995 -2.27189,-1.271998 -1.97589,-4.807993 0.392,-5.807991 z"
     id="path58"
     inkscape:connector-curvature="0"
     style="fill:#14682e" />
  <path
     d="m 219.55492,13.215995 c 2.60798,-1.103999 5.62394,2.343996 3.93591,4.727992 -0.984,1.975998 -3.85588,2.391997 -5.29575,0.672 -1.80799,-1.623998 -0.80007,-4.663993 1.35984,-5.399992 z"
     id="path60"
     inkscape:connector-curvature="0"
     style="fill:#14682e" />
  <path
     d="m 232.2026,17.503989 c -0.88807,-2.015997 0.88787,-4.263994 2.91186,-4.519994 1.91991,-0.032 3.86385,1.791997 3.5119,3.767995 -0.16807,1.791997 -2.05594,2.479996 -3.23989,3.511994 -1.08,-0.887998 -2.47992,-1.503997 -3.18387,-2.759995 z"
     id="path62"
     inkscape:connector-curvature="0"
     style="fill:#14682e" />
  <path
     d="m 249.12199,13.223994 c 2.34393,-0.911997 4.94378,1.679998 4.15986,4.047995 -0.41606,2.223997 -3.43188,3.247994 -5.13582,1.783997 -2.16797,-1.415998 -1.53594,-5.183992 0.97596,-5.831992 z"
     id="path64"
     inkscape:connector-curvature="0"
     style="fill:#14682e" />
  <path
     d="m 204.27553,26.703975 c 2.87985,-1.167998 6.51173,1.327998 6.17578,4.495994 0.31198,3.823993 -4.8798,6.14399 -7.63173,3.575994 -2.85591,-2.095997 -1.92791,-7.095989 1.45595,-8.071988 z"
     id="path66"
     inkscape:connector-curvature="0"
     style="fill:#2bd97f" />
  <path
     d="m 249.00998,26.559975 c 2.87993,-0.903998 4.74385,1.855997 6.27981,3.767995 8.2317,0.24 16.46342,0.056 24.70316,0.119999 l 0,1.511998 c -8.19972,0.016 -16.39148,-0.048 -24.59114,0.032 -1.61604,1.935997 -3.56788,4.791993 -6.53588,3.775994 -4.59181,-0.887998 -4.47178,-8.439987 0.14405,-9.207986 z"
     id="path68"
     inkscape:connector-curvature="0"
     style="fill:#2ad47c" />
  <path
     d="m 204.25949,28.239973 c 2.66394,-1.647997 6.26383,1.887997 4.39187,4.511993 -0.99199,2.223997 -4.4479,2.239997 -5.60782,0.151999 -1.33597,-1.551997 -0.35197,-3.727994 1.21595,-4.663992 z"
     id="path70"
     inkscape:connector-curvature="0"
     style="fill:#14682e" />
  <path
     d="m 248.266,28.423972 c 1.68794,-1.111998 4.24783,-0.351999 4.90386,1.607998 0.95195,2.231997 -1.23993,4.983993 -3.63991,4.375993 -2.79988,-0.287999 -3.6479,-4.551992 -1.26395,-5.983991 z"
     id="path72"
     inkscape:connector-curvature="0"
     style="fill:#14682e" />
  <path
     d="m 84.231531,35.415962 c 1.99992,-0.951999 4.815842,0.655999 4.639839,2.951995 0.279984,2.823997 -3.767872,4.519994 -5.567797,2.343997 -1.703945,-1.479998 -1.023964,-4.375993 0.927958,-5.295992 z"
     id="path74"
     inkscape:connector-curvature="0"
     style="fill:#14682e" />
  <path
     d="m 98.655033,35.511962 c 1.855927,-1.183999 4.527867,0.04 4.999877,2.151997 0.85595,2.911995 -3.24792,5.527991 -5.439889,3.271994 -1.791893,-1.415997 -1.463902,-4.263993 0.440012,-5.423991 z"
     id="path76"
     inkscape:connector-curvature="0"
     style="fill:#14682e" />
  <path
     d="m 114.56653,35.383962 c 2.04791,-0.951998 4.79186,0.687999 4.65586,2.991995 0.20798,2.551996 -3.20794,4.319994 -5.18381,2.719996 -2.02396,-1.351998 -1.632,-4.703992 0.52795,-5.711991 z"
     id="path78"
     inkscape:connector-curvature="0"
     style="fill:#14682e" />
  <path
     d="m 129.894,35.559962 c 2.69589,-1.927997 6.4558,1.799997 4.58384,4.503993 -1.11196,2.279997 -4.71181,2.239996 -5.79975,-0.04801 -1.07998,-1.487997 -0.27205,-3.583994 1.21591,-4.455993 z"
     id="path80"
     inkscape:connector-curvature="0"
     style="fill:#14682e" />
  <path
     d="m 43.928901,44.015949 c -0.295985,-3.135995 3.351888,-5.671992 6.215792,-4.455993 2.343921,0.807999 3.79987,3.607994 2.8879,5.959991 -0.567983,1.719998 -2.375918,2.503996 -3.687874,3.567994 -0.04797,2.167997 -0.05604,4.335994 -0.01593,6.511991 1.615945,1.175998 3.799875,2.231997 3.919866,4.519993 0.543983,3.199996 -2.855901,6.03999 -5.927801,5.071993 -3.0559,-0.551999 -4.311849,-4.559994 -2.759902,-7.023991 0.92797,-1.103998 2.23192,-1.791997 3.40788,-2.599995 0.02405,-2.151997 0.01595,-4.303994 -0.01597,-6.45599 -1.799942,-1.223998 -4.359851,-2.487997 -4.023861,-5.095993 z"
     id="path82"
     inkscape:connector-curvature="0"
     style="fill:#2bd97f" />
  <path
     d="m 58.736399,44.751948 c -0.711977,-3.247995 2.727915,-6.34399 5.863802,-5.295993 2.551915,0.599999 4.063865,3.511996 3.255883,5.975992 -0.519975,1.815998 -2.40791,2.623996 -3.799858,3.663995 -0.03997,2.167996 -0.04798,4.327993 -0.01595,6.48799 1.58395,1.111998 3.775879,2.111996 3.943868,4.319994 0.599985,2.807995 -1.919935,5.631991 -4.767837,5.423992 -2.759906,0.111999 -5.023832,-2.663997 -4.503852,-5.343993 0.12,-2.271996 2.375931,-3.255994 3.95187,-4.423993 0.03996,-2.143997 0.03206,-4.287994 0,-6.431991 -1.583942,-1.143998 -3.767865,-2.143997 -3.927863,-4.375993 z"
     id="path84"
     inkscape:connector-curvature="0"
     style="fill:#2bd77e" />
  <path
     d="m 46.712807,41.239953 c 2.127933,-1.511998 5.127828,0.312 5.311822,2.775996 -0.255992,2.231997 -2.663914,4.015995 -4.855832,3.031996 -2.223932,-1.095999 -2.551924,-4.391994 -0.45599,-5.807992 z"
     id="path86"
     inkscape:connector-curvature="0"
     style="fill:#14682e" />
  <path
     d="m 61.880305,41.007953 c 2.399912,-1.239997 5.479802,1.159999 4.631833,3.807995 -0.455983,2.759996 -4.663842,3.375995 -5.9438,0.903998 -1.335952,-1.567997 -0.223989,-3.767994 1.311967,-4.711993 z"
     id="path88"
     inkscape:connector-curvature="0"
     style="fill:#14682e" />
  <path
     d="m 203.44348,41.783952 c 2.6159,-1.271997 6.39183,-0.112 6.91183,3.007996 0.94392,3.263995 -2.31194,6.53599 -5.56784,5.679991 -4.11188,-0.527999 -4.95185,-6.855989 -1.34399,-8.687987 z"
     id="path90"
     inkscape:connector-curvature="0"
     style="fill:#2bd980" />
  <path
     d="m 245.53004,46.431946 c -0.48797,-2.799997 2.05603,-5.471992 4.8719,-5.103993 2.42389,-0.056 3.55992,2.391996 4.87977,3.983994 8.23978,0.144 16.4715,0.016 24.71124,0.08 l 0,1.231998 c -8.23974,0.04 -16.4795,-0.07999 -24.71921,0.072 -1.03996,1.239999 -1.89587,2.719996 -3.3199,3.567995 -2.73589,1.207998 -6.36773,-0.727998 -6.4238,-3.831993 z"
     id="path92"
     inkscape:connector-curvature="0"
     style="fill:#2de286" />
  <path
     d="m 205.08353,42.679951 c 2.43185,-0.647999 4.82374,2.055996 3.8078,4.391993 -0.78397,2.527997 -4.71976,2.839996 -5.92778,0.504 -1.39996,-1.791997 0.0717,-4.455993 2.11998,-4.895993 z"
     id="path94"
     inkscape:connector-curvature="0"
     style="fill:#14682e" />
  <path
     d="m 249.15393,42.743952 c 3.15992,-1.159999 5.87187,3.439994 3.18392,5.56799 -1.73592,2.103998 -5.23182,0.576 -5.51183,-1.919997 -0.31996,-1.599997 0.80801,-3.183994 2.32791,-3.647993 z"
     id="path96"
     inkscape:connector-curvature="0"
     style="fill:#14682e" />
  <path
     d="m 189.77199,56.247931 c 3.03194,-1.303998 5.49579,1.255999 6.75976,3.711994 1.38399,0.008 2.77587,0.016 4.17583,0.008 1.104,-1.503997 2.01595,-3.543994 4.06389,-3.911994 2.83989,-0.727998 6.01579,1.727998 5.68781,4.727994 0.25601,2.543995 -2.19193,3.831994 -4.01589,4.967992 -0.0715,7.807988 -0.0798,15.607977 0.007,23.415965 1.56793,1.127999 3.8799,2.087995 3.97587,4.327989 0.59197,2.855996 -1.87193,5.775997 -4.82385,5.447991 -2.49586,0.120002 -3.71988,-2.279996 -4.95182,-4.015988 -6.37576,-0.08002 -12.75154,0.0081 -19.12731,-0.06401 -1.224,1.672 -2.32797,4.023995 -4.72791,4.055995 -3.25587,0.560001 -6.12777,-2.975996 -5.01582,-6.039987 0.64804,-2.416 3.42393,-3.919993 5.80784,-3.127996 1.8719,0.463996 2.68786,2.407997 3.74387,3.807989 6.44778,0.05603 12.90357,0.06401 19.3514,-0.0081 1.1039,-1.775997 2.58386,-3.271999 4.35179,-4.399992 0.11197,-7.775988 0.11197,-15.551977 0,-23.327965 -1.75196,-1.191999 -3.23185,-2.711996 -4.42379,-4.455994 -1.29598,-0.064 -2.59197,-0.088 -3.88789,-0.127999 -1.30397,2.231997 -3.25594,4.815993 -6.23182,4.007993 -4.50384,-0.607998 -4.97589,-7.607988 -0.71997,-8.999986 z"
     id="path98"
     inkscape:connector-curvature="0"
     style="fill:#2bd67d" />
  <path
     d="m 215.92313,60.815925 c -0.30396,-2.703997 2.28792,-5.087993 4.93582,-4.807993 3.00787,0.07999 5.3118,3.527994 4.14382,6.31999 -0.58394,1.679998 -2.35192,2.439996 -3.64786,3.471995 -0.10401,12.663981 -0.10401,25.335961 0,37.999943 1.67996,1.296 3.97586,2.528 3.95186,4.97599 0.19198,3.328 -3.55983,5.928 -6.59181,4.50401 -2.68788,-1.008 -3.56777,-4.496 -2.19189,-6.872 0.8959,-1.136 2.24792,-1.76 3.43192,-2.55999 0.0638,-12.70399 0.0717,-25.399972 -0.007,-38.103954 -1.83193,-1.111997 -4.38392,-2.335995 -4.02386,-4.927991 z"
     id="path100"
     inkscape:connector-curvature="0"
     style="fill:#2ad57d" />
  <path
     d="m 230.73059,61.495922 c -0.55997,-2.695994 1.656,-5.527991 4.44792,-5.463991 2.9198,-0.255999 5.46377,2.783997 4.78374,5.623991 -0.27196,2.095998 -2.39986,3.007996 -3.9199,4.095995 -0.0958,9.231986 -0.0396,18.455973 -0.0237,27.687961 3.84775,3.799995 7.68772,7.615992 11.47155,11.487982 0.66405,-0.368 1.368,-0.60799 2.11195,-0.72799 -0.056,-12.823988 0.0555,-25.655972 -0.056,-38.479953 -1.83994,-1.095998 -4.39185,-2.311996 -4.03176,-4.895993 -0.35205,-2.695996 2.26388,-5.055993 4.87983,-4.783993 2.69587,0.088 4.91977,2.839996 4.28785,5.503992 -0.19201,2.111996 -2.31199,3.055995 -3.74393,4.247994 -0.10405,12.679981 -0.0959,25.367961 -0.007,38.047953 1.68788,1.24 3.99979,2.48799 3.83186,4.94399 0.39201,4.03199 -5.22387,6.54399 -7.9277,3.50399 -1.99996,-1.65599 -1.07197,-4.37599 -0.76801,-6.55198 -3.75185,-3.81601 -7.57573,-7.576 -11.34358,-11.375994 -0.0718,-9.527987 0.0876,-19.055974 -0.0797,-28.58396 -1.55196,-1.135997 -3.7839,-2.063996 -3.91184,-4.279994 z"
     id="path102"
     inkscape:connector-curvature="0"
     style="fill:#2bd97f" />
  <path
     d="m 46.68081,57.927928 c 1.527946,-1.015998 3.847868,-0.567998 4.719838,1.095998 1.919937,2.407997 -1.455945,6.079992 -4.087857,4.743994 -2.383916,-0.903999 -2.73591,-4.423993 -0.631981,-5.839992 z"
     id="path104"
     inkscape:connector-curvature="0"
     style="fill:#14682e" />
  <path
     d="m 61.792297,57.767928 c 2.943906,-1.767997 6.503785,2.391997 4.087862,4.927994 -1.647942,2.607995 -5.8718,0.935998 -5.8878,-1.911998 -0.127993,-1.263997 0.79997,-2.375996 1.799938,-3.015996 z"
     id="path106"
     inkscape:connector-curvature="0"
     style="fill:#14682e" />
  <path
     d="m 84.10355,57.679928 c 1.871924,-0.927998 4.455844,0.216 4.76782,2.343997 0.75997,2.703996 -2.88788,5.207992 -5.09581,3.399995 -2.191932,-1.215998 -1.903948,-4.735993 0.32799,-5.743992 z"
     id="path108"
     inkscape:connector-curvature="0"
     style="fill:#14682e" />
  <path
     d="m 129.88597,57.815929 c 2.5679,-1.847998 6.23979,1.503997 4.76786,4.223993 -0.90391,2.159997 -4.08786,2.679996 -5.56778,0.831999 -1.45593,-1.463998 -0.92798,-4.047994 0.79992,-5.055992 z"
     id="path110"
     inkscape:connector-curvature="0"
     style="fill:#14682e" />
  <path
     d="m 144.3256,58.055928 c 2.0079,-1.703997 5.65574,0 5.31971,2.711996 0.12804,2.415996 -3.16786,4.255994 -5.08783,2.663996 -1.88791,-1.103998 -1.9919,-4.103994 -0.23188,-5.375992 z"
     id="path112"
     inkscape:connector-curvature="0"
     style="fill:#14682e" />
  <path
     d="m 159.43703,57.831929 c 2.40789,-1.703998 6.05574,1.287998 4.77583,3.959994 -0.63997,2.111996 -3.47193,2.983996 -5.13583,1.479997 -1.85592,-1.327998 -1.568,-4.319993 0.36,-5.439991 z"
     id="path114"
     inkscape:connector-curvature="0"
     style="fill:#14682e" />
  <path
     d="m 189.92399,57.791929 c 2.39188,-1.479999 5.75177,1.183998 4.64787,3.847993 -0.55201,2.367998 -4.02393,3.279996 -5.49587,1.239999 -1.63987,-1.495998 -0.94397,-4.063993 0.848,-5.087992 z"
     id="path116"
     inkscape:connector-curvature="0"
     style="fill:#14682e" />
  <path
     d="m 204.21951,57.735929 c 2.45592,-1.287999 5.6558,1.055998 4.74384,3.783995 -0.52001,2.431996 -3.93588,3.391994 -5.53585,1.415997 -1.73593,-1.487997 -0.95194,-4.095994 0.79201,-5.199992 z"
     id="path118"
     inkscape:connector-curvature="0"
     style="fill:#14682e" />
  <path
     d="m 218.68298,57.975929 c 2.13593,-1.447999 5.32783,0.327999 5.24781,2.863995 -0.11197,2.423997 -3.16789,4.159994 -5.1998,2.663996 -1.86393,-1.263998 -1.9519,-4.255994 -0.0477,-5.527991 z"
     id="path120"
     inkscape:connector-curvature="0"
     style="fill:#14682e" />
  <path
     d="m 233.79442,57.735929 c 1.888,-0.775999 4.36796,0.119999 4.71994,2.279996 0.85595,2.999996 -3.48789,5.503992 -5.49588,2.991996 -1.75984,-1.479998 -1.07195,-4.199994 0.77594,-5.271992 z"
     id="path122"
     inkscape:connector-curvature="0"
     style="fill:#14682e" />
  <path
     d="m 248.24997,57.943928 c 1.50394,-0.927998 3.83192,-0.552 4.68794,1.119999 1.48787,2.167997 -0.76006,5.471991 -3.3199,4.927992 -2.8639,-0.248 -3.82391,-4.567993 -1.36804,-6.047991 z"
     id="path124"
     inkscape:connector-curvature="0"
     style="fill:#14682e" />
  <path
     d="m 259.92963,74.415904 c -0.36802,-2.495996 1.50397,-5.031993 4.06384,-5.215992 2.73592,-0.543999 4.32786,2.103997 5.88782,3.831994 3.36781,0.07999 6.7358,0.072 10.11166,0.04801 l 0,1.319997 c -3.36789,0 -6.73576,-0.016 -10.10371,0.07999 -1.43191,1.695997 -2.94389,3.311994 -4.54385,4.847993 -0.0714,8.087987 -0.11194,16.183983 0.0311,24.279974 2.30394,1.68 5.22378,4.352 3.40784,7.47999 -1.71983,4.04 -8.57561,2.97599 -8.83166,-1.464 -0.68,-2.88 2.07193,-4.488 3.9679,-5.99199 0.12,-8.167993 0.104,-16.335987 0.007,-24.511975 -1.52798,-1.311998 -3.91991,-2.391996 -3.99983,-4.703993 z"
     id="path126"
     inkscape:connector-curvature="0"
     style="fill:#2ad47c" />
  <path
     d="m 263.52944,70.71991 c 2.58396,-1.183999 5.68783,2.439996 3.91995,4.759992 -1.08009,2.039997 -4.39187,2.255997 -5.58386,0.232 -1.24799,-1.719998 -0.28001,-4.295994 1.66391,-4.991992 z"
     id="path128"
     inkscape:connector-curvature="0"
     style="fill:#14682e" />
  <path
     d="m 84.175532,84.959889 c 2.359927,-1.311998 5.527806,1.271997 4.647855,3.847993 -0.535993,2.383999 -3.919875,3.423991 -5.559813,1.503999 -1.687937,-1.503999 -1.135961,-4.463994 0.911958,-5.351992 z"
     id="path130"
     inkscape:connector-curvature="0"
     style="fill:#14682e" />
  <path
     d="m 174.70855,91.399874 c 2.37589,-1.495994 5.75179,1.144006 4.67177,3.807999 -0.52801,2.399994 -4.03985,3.319989 -5.51174,1.263999 -1.61598,-1.487999 -0.936,-4.039991 0.83997,-5.071998 z"
     id="path132"
     inkscape:connector-curvature="0"
     style="fill:#14682e" />
  <path
     d="m 204.21146,91.343879 c 2.42397,-1.279998 5.68783,1.071996 4.75189,3.783997 -0.52001,2.43199 -3.94397,3.375994 -5.53585,1.399992 -1.7279,-1.479996 -0.93592,-4.079989 0.78396,-5.183989 z"
     id="path134"
     inkscape:connector-curvature="0"
     style="fill:#14682e" />
  <path
     d="m 31.545325,98.143865 c -1.319961,-2.719996 0.623974,-6.24799 3.631871,-6.567984 2.863907,-0.512005 4.271862,2.607997 6.519777,3.719991 3.943873,0.592002 7.951739,0.111999 11.927603,0.208001 20.767297,0.096 41.534595,-0.168003 62.301924,0.136001 0.072,8.223986 -0.10399,16.455976 0.10407,24.679976 1.50386,1.43199 2.95981,2.91998 4.36773,4.45599 35.0628,0.19199 70.13366,0.048 105.19648,0.072 1.96791,-0.184 3.69585,0.792 4.97577,2.216 4.76791,4.86399 9.59971,9.67198 14.39952,14.51198 11.67162,0.04 23.35126,0.008 35.02288,0.024 l 0,1.288 c -10.13566,0.032 -20.27933,-0.064 -30.41494,0.064 -1.77597,-0.048 -3.60787,0.08 -5.31985,-0.472 -1.528,-0.92 -2.75195,-2.24 -3.99983,-3.488 -4.08791,-4.27999 -8.34373,-8.37598 -12.47158,-12.60798 -35.79886,-0.056 -71.59761,-0.12 -107.38845,0.032 -1.4559,1.58399 -2.75987,4.00799 -5.23174,3.93599 -2.54392,0.072 -4.79991,-2.20799 -4.71989,-4.75199 -0.14404,-2.512 2.32792,-3.848 3.92784,-5.31999 0.18402,-7.82399 0.0477,-15.64798 0.0798,-23.471976 -24.447183,0.02399 -48.886358,-0.088 -73.333528,0.06401 -0.991973,1.231993 -1.839943,2.655998 -3.159896,3.575996 -2.311918,1.12001 -5.455817,0.17601 -6.415779,-2.304006 z"
     id="path136"
     inkscape:connector-curvature="0"
     style="fill:#2bd77e" />
  <path
     d="m 34.705214,93.15188 c 2.591912,-1.312001 5.831806,2.383989 3.991864,4.791989 -1.199961,2.223991 -4.95983,2.080001 -5.831795,-0.360002 -0.831978,-1.703996 0.127988,-3.767991 1.839931,-4.431987 z"
     id="path138"
     inkscape:connector-curvature="0"
     style="fill:#14682e" />
  <path
     d="m 81.039644,110.24785 c -0.983964,-2.83199 1.511949,-6.22398 4.535849,-5.99998 3.063907,-0.248 5.599837,3.18399 4.567833,6.03998 -0.503961,1.816 -2.359918,2.656 -3.735839,3.728 -0.03177,2.18399 -0.02395,4.36 0.02395,6.54399 1.543941,1.128 3.615843,2.136 3.86386,4.272 0.615967,3.03999 -2.415933,6.08798 -5.463824,5.46399 -2.7199,-0.408 -4.711838,-3.46399 -3.775866,-6.09599 0.527972,-1.78399 2.351922,-2.592 3.711876,-3.64 0.04782,-2.18399 0.05613,-4.36799 0.01621,-6.54399 -1.375962,-1.07999 -3.247902,-1.936 -3.743891,-3.768 z"
     id="path140"
     inkscape:connector-curvature="0"
     style="fill:#2ad37b" />
  <path
     d="m 16.257842,105.83186 c 2.159924,-2.216 6.535775,-1.552 7.639735,1.456 0.415987,1.76 -0.04799,3.58399 -0.223988,5.35199 2.911899,2.96799 5.839802,5.92 8.863701,8.76799 2.215917,-0.16 4.983828,-1.056 6.679774,0.92 2.583915,2.472 1.087961,7.39999 -2.471918,7.93598 -2.847905,0.75201 -4.583844,-2.00799 -6.159789,-3.83199 -10.191658,-0.19999 -20.391314,-0.04 -30.58296786,-0.088 l 0,-1.48799 c 10.64763686,-0.024 21.29528486,0.064 31.94291986,-0.04 -1.359952,-4.89598 -6.159792,-7.54399 -9.383682,-11.11999 -1.623943,-0.024 -3.263887,0.064 -4.86384,-0.224 -3.047895,-1.02399 -3.663869,-5.51198 -1.439945,-7.63998 z"
     id="path142"
     inkscape:connector-curvature="0"
     style="fill:#2bd67e" />
  <path
     d="m 95.78317,109.58386 c -0.432004,-2.56001 1.519925,-5.33599 4.23981,-5.28799 2.87992,-0.352 5.55985,2.44799 4.9599,5.31999 -0.144,2.23999 -2.35193,3.248 -3.93588,4.39999 -0.015,2.168 -0.015,4.328 0.007,6.49599 1.52796,1.168 3.72784,2.112 3.91188,4.304 0.73595,3.19199 -2.59996,6.22399 -5.703824,5.35199 -3.08789,-0.624 -4.583848,-4.672 -2.759915,-7.18399 0.94399,-0.99999 2.127925,-1.71201 3.239894,-2.50399 0.02411,-2.136 0.03169,-4.28001 0.01515,-6.424 -1.559989,-1.19199 -3.935891,-2.168 -3.975922,-4.47199 z"
     id="path144"
     inkscape:connector-curvature="0"
     style="fill:#2ddf84" />
  <path
     d="m 171.86858,107.30386 c 0.704,-2.29599 3.36791,-3.51199 5.62385,-2.89599 1.98389,0.33599 2.79182,2.37599 3.8478,3.824 6.4398,0.15199 12.87958,0.08 19.31938,0.04 1.15997,-1.51201 2.08798,-3.704 4.24784,-3.944 2.73596,-0.64 5.70383,1.59199 5.55183,4.46399 0.33597,2.99199 -2.82389,5.47199 -5.66383,4.75199 -2.04786,-0.344 -2.97587,-2.384 -4.04785,-3.90399 -6.4718,-0.064 -12.94354,-0.0561 -19.41531,0 -1.15192,1.61599 -2.22394,3.83999 -4.49584,3.95999 -3.33589,0.632 -6.31983,-3.208 -4.96787,-6.29599 z"
     id="path146"
     inkscape:connector-curvature="0"
     style="fill:#2bd77e" />
  <path
     d="m 18.753756,105.97586 c 2.655913,-0.888 5.447817,2.816 3.511879,5.04 -1.159959,1.99999 -4.175859,1.98398 -5.36782,0.016 -1.519946,-1.752 -0.159994,-4.43999 1.855941,-5.05599 z"
     id="path148"
     inkscape:connector-curvature="0"
     style="fill:#14682e" />
  <path
     d="m 84.271538,105.92786 c 2.21593,-1.27199 5.223847,1.232 4.53585,3.66399 -0.296017,2.52001 -3.911876,3.40001 -5.559822,1.632 -1.623939,-1.51199 -1.015964,-4.45598 1.023972,-5.29599 z"
     id="path150"
     inkscape:connector-curvature="0"
     style="fill:#14682e" />
  <path
     d="m 98.719023,106.01587 c 2.047997,-1.32801 4.855907,0.39999 5.015867,2.71199 0.20001,2.49599 -2.95993,4.59999 -5.111815,3.03999 -2.143965,-1.24 -2.095934,-4.59999 0.09629,-5.75198 z"
     id="path152"
     inkscape:connector-curvature="0"
     style="fill:#14682e" />
  <path
     d="m 130.734,105.92786 c 2.7439,-0.88799 5.5198,2.88 3.55186,5.14399 -1.18396,1.976 -4.22388,1.968 -5.42382,0.016 -1.50389,-1.784 -0.208,-4.56 1.87196,-5.16 z"
     id="path154"
     inkscape:connector-curvature="0"
     style="fill:#14682e" />
  <path
     d="m 160.37302,105.94386 c 2.43987,-0.68799 5.11182,2.32 3.76783,4.61599 -0.86398,2.016 -3.79991,2.704 -5.31985,1.00001 -1.92789,-1.696 -0.87993,-5.07199 1.55202,-5.616 z"
     id="path156"
     inkscape:connector-curvature="0"
     style="fill:#14682e" />
  <path
     d="m 174.66849,106.01587 c 2.27992,-1.544 5.50382,1.00798 4.81579,3.59199 -0.34394,2.6 -4.19179,3.544 -5.6878,1.39199 -1.55989,-1.472 -0.81594,-3.96799 0.87201,-4.98398 z"
     id="path158"
     inkscape:connector-curvature="0"
     style="fill:#14682e" />
  <path
     d="m 204.30747,105.99186 c 2.55991,-1.66399 5.94385,1.736 4.47187,4.328 -0.87198,2.39999 -4.63984,2.49599 -5.78384,0.27999 -1.27994,-1.55999 -0.26398,-3.73599 1.31197,-4.60799 z"
     id="path160"
     inkscape:connector-curvature="0"
     style="fill:#14682e" />
  <path
     d="m 219.37099,105.80786 c 2.62387,-1.26399 5.84778,2.384 4.00786,4.76 -1.10401,2.25599 -4.85589,2.11999 -5.78386,-0.21601 -0.89589,-1.65599 0.0639,-3.87999 1.776,-4.54399 z"
     id="path162"
     inkscape:connector-curvature="0"
     style="fill:#14682e" />
  <path
     d="m 248.86593,105.82387 c 2.29597,-1.088 5.05585,1.31199 4.47183,3.72799 -0.42391,2.16799 -3.17585,3.47199 -5.04775,2.128 -2.19193,-1.28801 -1.81591,-5.024 0.57592,-5.85599 z"
     id="path164"
     inkscape:connector-curvature="0"
     style="fill:#14682e" />
  <path
     d="m 263.37752,105.86386 c 2.59194,-1.36799 5.94377,2.312 4.02387,4.704 -1.11999,2.24 -4.85595,2.15199 -5.76785,-0.208 -0.90398,-1.67201 0.0639,-3.784 1.74398,-4.496 z"
     id="path166"
     inkscape:connector-curvature="0"
     style="fill:#14682e" />
  <path
     d="m 47.88077,124.05584 c 0.83197,-3.104 5.287825,-4.176 7.519746,-1.904 2.439925,2.08799 1.75194,6.71199 -1.359954,7.77599 -1.671942,0.33599 -3.383887,0.04 -5.063835,-0.072 -3.047892,2.95999 -6.07179,5.93598 -8.959688,9.04798 0.127998,1.664 0.383986,3.34399 0.183995,5.016 -0.839978,1.52799 -2.415923,2.43999 -3.703882,3.54399 -0.0064,1.41599 -0.0064,2.83199 0,4.24799 1.287959,1.104 2.887902,2 3.711876,3.55199 0.183999,1.64 -0.02405,3.296 -0.119991,4.94399 18.807362,19.07198 37.838714,37.92796 56.78207,56.87193 2.439925,-0.544 5.679823,-1.43201 7.327763,1.14399 2.75995,3.52 -1.42399,9.00799 -5.551804,7.08 -3.087906,-0.98401 -2.807914,-4.536 -2.77589,-7.12799 -18.815389,-19.11996 -37.886751,-37.98393 -56.846111,-56.9519 -1.703937,0.08 -3.471877,0.46399 -5.143825,-0.016 -1.327954,-0.91999 -2.231918,-2.312 -3.247888,-3.54399 -10.207651,-0.136 -20.423306,-0.032 -30.63096286,-0.064 l 0,-1.24001 c 10.16765286,-0.032 20.34331286,0.048 30.51096686,-0.04 1.447952,-1.632 2.9919,-3.17601 4.623842,-4.61601 0.0064,-1.42398 0.0064,-2.84799 0,-4.27198 -1.639942,-1.416 -3.183893,-2.928 -4.623842,-4.54399 -10.167654,-0.23199 -20.351308,0.24001 -30.51096686,-0.22399 l 0,-1.064 c 10.20765686,-0.032 20.40730986,0.064 30.61496386,-0.064 1.023968,-1.25599 1.927935,-2.664 3.279888,-3.59999 1.671945,-0.392 3.399885,-0.128 5.095832,-0.072 2.999896,-2.98399 6.015792,-5.95999 8.951693,-9.01599 -0.07198,-1.59999 -0.271987,-3.19998 -0.06405,-4.79199 z"
     id="path168"
     inkscape:connector-curvature="0"
     style="fill:#2de386" />
  <path
     d="m 248.346,121.21584 c 2.88797,-1.328 6.63977,1.14399 6.3998,4.368 0.288,3.41599 -3.94386,5.94399 -6.83982,4.19199 -3.45585,-1.552 -3.19185,-7.376 0.44002,-8.55999 z"
     id="path170"
     inkscape:connector-curvature="0"
     style="fill:#2bd980" />
  <path
     d="m 263.38543,121.01584 c 2.93594,-0.992 4.83983,1.87201 6.4558,3.776 3.38392,0.072 6.76776,0.072 10.15172,0.064 l 0,1.48799 c -3.39193,-0.008 -6.77573,-0.008 -10.15965,0.088 -1.65597,2.176 -4.03988,5.11199 -7.1278,3.552 -4.02384,-1.496 -3.56782,-8.11999 0.67993,-8.96799 z"
     id="path172"
     inkscape:connector-curvature="0"
     style="fill:#2bd57d" />
  <path
     d="m 34.465219,122.59184 c 2.751912,-1.472 6.167793,2.27999 4.151864,4.75999 -0.983965,1.80799 -3.695881,2.032 -5.087825,0.60801 -1.575953,-1.504 -1.103968,-4.52 0.935961,-5.368 z"
     id="path174"
     inkscape:connector-curvature="0"
     style="fill:#14682e" />
  <path
     d="m 50.66467,122.67984 c 2.695919,-1.768 6.295794,1.912 4.439851,4.52799 -1.015962,2.224 -4.439851,2.272 -5.647806,0.192 -1.287958,-1.53599 -0.415987,-3.83999 1.207955,-4.71999 z"
     id="path176"
     inkscape:connector-curvature="0"
     style="fill:#14682e" />
  <path
     d="m 84.215555,122.60784 c 2.023928,-1.072 4.751836,0.712 4.663847,2.968 0.199978,2.76799 -3.767896,4.53599 -5.575829,2.31199 -1.703945,-1.464 -1.103962,-4.41599 0.911982,-5.27999 z"
     id="path178"
     inkscape:connector-curvature="0"
     style="fill:#14682e" />
  <path
     d="m 98.663066,122.72784 c 2.279904,-1.568 5.831814,0.992 4.951794,3.632 -0.48793,2.54399 -4.303828,3.54398 -5.775796,1.31999 -1.463927,-1.48799 -0.807961,-3.88 0.824002,-4.95199 z"
     id="path180"
     inkscape:connector-curvature="0"
     style="fill:#14682e" />
  <path
     d="m 113.80653,122.55984 c 2.0399,-0.928 4.7919,0.72 4.6159,3.03199 0.22396,2.544 -3.15192,4.272 -5.13586,2.71999 -2.10392,-1.29598 -1.7519,-4.81599 0.51996,-5.75198 z"
     id="path182"
     inkscape:connector-curvature="0"
     style="fill:#14682e" />
  <path
     d="m 248.29799,122.83183 c 2.05595,-1.45599 5.19182,0.23201 5.0878,2.74401 0.1121,2.28799 -2.52782,4.07199 -4.61582,3.04 -2.3599,-0.84001 -2.62389,-4.56 -0.47198,-5.78401 z"
     id="path184"
     inkscape:connector-curvature="0"
     style="fill:#14682e" />
  <path
     d="m 263.31346,122.51184 c 2.71994,-1.2 6.00783,2.39199 4.03194,4.824 -1.09596,2.12799 -4.61586,2.06399 -5.59189,-0.12001 -1.19192,-1.63199 -0.10393,-3.912 1.55995,-4.70399 z"
     id="path186"
     inkscape:connector-curvature="0"
     style="fill:#14682e" />
  <path
     d="m 81.663634,136.85581 c 1.519942,-2.63998 5.703802,-2.91999 7.527751,-0.46399 1.895915,2.048 1.263941,5.66399 -1.167976,6.99999 -1.655954,1.096 -3.647866,0.29599 -5.431809,0.048 -3.167893,3.15199 -6.335792,6.304 -9.479686,9.48799 0.343987,2.16 1.159962,4.87999 -0.879971,6.47199 -2.295916,2.304 -6.719769,1.272 -7.623738,-1.888 -1.071964,-2.57599 0.799968,-5.63199 3.455876,-6.15199 1.367959,-0.024 2.711915,0.288 4.063868,0.496 3.167892,-3.072 6.287788,-6.19199 9.359682,-9.368 -0.223994,-1.84798 -1.071962,-3.97599 0.176003,-5.63198 z"
     id="path188"
     inkscape:connector-curvature="0"
     style="fill:#2cdc82" />
  <path
     d="m 84.279537,136.33582 c 2.191923,-1.256 5.239831,1.232 4.559842,3.65599 -0.295984,2.09599 -3.015892,3.47199 -4.815834,2.264 -2.407909,-1.128 -2.231922,-4.96 0.255992,-5.91999 z"
     id="path190"
     inkscape:connector-curvature="0"
     style="fill:#14682e" />
  <path
     d="m 110.55063,140.0158 c -0.007,-2.43198 2.26392,-4.37598 4.64783,-4.25598 2.51202,-0.184 3.74394,2.36799 5.15985,3.98399 32.1509,0.11201 64.30983,0.016 96.46876,0.048 3.70389,0.072 7.45574,-0.36 11.13561,0.264 3.71191,2.27201 6.27985,5.98399 9.48771,8.88799 2.75189,2.392 4.8238,5.89599 8.26368,7.30399 11.40766,0.496 22.86325,-0.232 34.27888,0.312 l 0,1.04 c -11.92765,-0.008 -23.85523,0.024 -35.77479,-0.016 -5.46378,-5.55999 -11.02366,-11.02399 -16.50349,-16.55997 -35.79079,0 -71.58157,-0.072 -107.37234,0.032 -1.41594,1.616 -2.6719,4.056 -5.15977,3.96799 -2.62395,0.096 -4.94388,-2.39199 -4.63193,-5.008 z"
     id="path192"
     inkscape:connector-curvature="0"
     style="fill:#2fec8d" />
  <path
     d="m 113.90252,137.23181 c 2.52797,-1.23999 5.6399,1.888 4.35186,4.40001 -0.75992,1.99999 -3.57586,2.89598 -5.1838,1.35199 -2.09591,-1.416 -1.48791,-4.936 0.83194,-5.752 z"
     id="path194"
     inkscape:connector-curvature="0"
     style="fill:#14682e" />
  <path
     d="m 33.873241,139.51182 c 1.711942,-1.36801 4.239858,-0.488 5.079828,1.41599 1.271965,2.464 -1.815935,5.672 -4.303851,4.368 -2.391919,-0.808 -2.895905,-4.4 -0.775977,-5.78399 z"
     id="path196"
     inkscape:connector-curvature="0"
     style="fill:#14682e" />
  <path
     d="m 0.00238914,142.66381 c 10.15965886,0.464 20.34331286,-0.008 30.51096686,0.224 1.439949,1.616 2.9839,3.128 4.623842,4.544 0.0064,1.42399 0.0064,2.84799 0,4.27198 -1.631942,1.44 -3.17589,2.98401 -4.623842,4.616 -10.167654,0.088 -20.343314,0.008 -30.51096686,0.04 l 0,-13.69597 z"
     id="path198"
     inkscape:connector-curvature="0"
     style="fill:#14682e" />
  <path
     d="m 81.807622,152.28779 c 1.887923,-2.63999 6.415782,-2.376 7.919732,0.52 1.455968,2.32 0.248001,5.66399 -2.255929,6.664 -1.559941,0.73599 -3.303876,0.016 -4.911824,-0.152 -3.191891,3.12799 -6.359794,6.27998 -9.471688,9.48798 0.703977,2.51999 0.903975,5.91199 -1.951933,7.15999 -3.807875,2.288 -8.591705,-2.48 -6.359783,-6.31199 1.16796,-3.024 4.711835,-2.616 7.255758,-2 3.191891,-3.07199 6.311783,-6.23198 9.423687,-9.38399 -0.263998,-1.976 -1.103973,-4.27199 0.35198,-5.98399 z"
     id="path200"
     inkscape:connector-curvature="0"
     style="fill:#2bd57d" />
  <path
     d="m 98.695008,150.7438 c 3.223942,-1.344 7.087792,1.792 6.271822,5.23199 -0.35996,3.256 -4.61584,4.99999 -7.207731,3.064 -3.11193,-1.832 -2.495939,-7.2 0.935909,-8.29599 z"
     id="path202"
     inkscape:connector-curvature="0"
     style="fill:#2cde83" />
  <path
     d="m 113.80653,150.5598 c 2.99992,-1.032 5.00784,1.768 6.6158,3.78399 31.86292,0.2 63.73384,0.024 95.60475,0.088 3.96788,0.088 7.99173,-0.416 11.92756,0.28001 1.51204,0.67199 2.62398,1.95998 3.79995,3.08 4.33585,4.53599 8.84763,8.89597 13.23152,13.38397 11.67159,0.048 23.33522,0.008 35.00684,0.024 l 0,1.312 c -11.95162,-0.032 -23.90322,0.064 -35.85482,-0.0561 -5.40782,-5.52798 -10.94363,-10.93598 -16.35941,-16.45597 -35.80681,-0.016 -71.61363,-0.136 -107.42041,0.064 -1.62393,2.13599 -4.08782,5.032 -7.08775,3.416 -3.99985,-1.48 -3.67185,-7.95999 0.53597,-8.92 z"
     id="path204"
     inkscape:connector-curvature="0"
     style="fill:#2ad27b" />
  <path
     d="m 84.183548,152.16779 c 2.095918,-1.008 4.895832,0.64 4.679814,3.04 0.160011,2.768 -3.759864,4.4 -5.559789,2.272 -1.655946,-1.488 -1.111961,-4.39199 0.879975,-5.312 z"
     id="path206"
     inkscape:connector-curvature="0"
     style="fill:#14682e" />
  <path
     d="m 98.671082,152.28779 c 2.383888,-1.55999 5.735758,0.96001 4.951818,3.656 -0.56802,2.504 -4.207822,3.47999 -5.77582,1.328 -1.455935,-1.472 -0.831969,-3.95999 0.824002,-4.984 z"
     id="path208"
     inkscape:connector-curvature="0"
     style="fill:#14682e" />
  <path
     d="m 113.72656,152.13579 c 2.1519,-0.92799 4.8239,0.68001 4.69587,3.08 0.12803,2.48 -3.1679,4.23999 -5.11181,2.608 -2.09603,-1.224 -1.77595,-4.72799 0.41594,-5.688 z"
     id="path210"
     inkscape:connector-curvature="0"
     style="fill:#14682e" />
  <path
     d="m 67.440102,153.03179 c 2.679916,-1.67199 6.311793,1.896 4.431853,4.528 -1.015961,2.2 -4.45585,2.256 -5.63181,0.16 -1.295953,-1.536 -0.343984,-3.76 1.199957,-4.688 z"
     id="path212"
     inkscape:connector-curvature="0"
     style="fill:#14682e" />
  <path
     d="m 34.59322,153.86379 c 1.95193,-0.98399 4.511847,0.752 4.615841,2.872 0.311995,2.63999 -3.24789,4.744 -5.319814,2.91199 -2.143933,-1.4 -1.58395,-4.85599 0.703973,-5.78399 z"
     id="path214"
     inkscape:connector-curvature="0"
     style="fill:#14682e" />
  <path
     d="m 130.35802,172.71177 c -4.45589,-0.96 -4.46385,-8.152 0.0477,-9.01599 2.91186,-0.91201 4.99979,1.59199 6.21578,3.84799 13.72751,0.048 27.45511,0.0561 41.17457,-0.008 4.68786,4.488 9.13573,9.21599 13.79959,13.71198 1.09597,1.232 2.88787,0.848 4.35187,0.97601 17.24733,-0.112 34.49478,0.032 51.73422,-0.072 1.18392,-1.52 2.1359,-3.672 4.29592,-3.91999 2.8958,-0.61601 5.83975,2.09599 5.43972,5.03999 -0.21597,2.592 -2.81591,4.67999 -5.41578,4.11999 -2.20794,-0.176 -3.14391,-2.40799 -4.31186,-3.944 -18.5914,-0.064 -37.18273,-0.04 -55.77417,-0.016 -4.88776,-4.83199 -9.76764,-9.66398 -14.55947,-14.58398 -13.59152,-0.072 -27.18306,-0.072 -40.76655,-0.008 -1.16806,2.328 -3.27995,4.84 -6.23185,3.872 z"
     id="path216"
     inkscape:connector-curvature="0"
     style="fill:#2ee88a" />
  <path
     d="m 130.54201,164.98378 c 2.56789,-1.032 5.51179,2.264 4.03981,4.66399 -0.95193,2.264 -4.31982,2.616 -5.66382,0.536 -1.54394,-1.71999 -0.43202,-4.51199 1.62401,-5.19999 z"
     id="path218"
     inkscape:connector-curvature="0"
     style="fill:#14682e" />
  <path
     d="m 33.889247,167.50376 c 2.175921,-0.95198 5.263814,-0.20799 6.159789,2.18401 0.415987,1.744 0.199991,3.55199 0.191994,5.32799 18.88736,18.94397 37.790721,37.85595 56.734058,56.72791 1.751952,0.0801 3.527892,-0.096 5.247832,0.35201 2.63195,1.06399 3.43192,4.80799 1.67193,6.97598 -1.87187,2.688 -6.791774,2.384 -7.967725,-0.81599 -0.519961,-1.776 -0.02452,-3.656 0.07193,-5.456 -18.887378,-18.98396 -37.830739,-37.92794 -56.814098,-56.81592 -1.799941,0.04 -3.687874,0.52001 -5.439814,-0.072 -1.239958,-0.944 -2.119931,-2.24799 -3.1119,-3.42399 -10.207656,-0.22402 -20.431308,0.24798 -30.63096325,-0.23202 l 0,-1.05601 c 10.19968225,-0.032 20.39134125,0.064 30.59099625,-0.056 1.031964,-1.264 1.943939,-2.69601 3.295889,-3.64001 z"
     id="path220"
     inkscape:connector-curvature="0"
     style="fill:#2de286" />
  <path
     d="m 33.897241,169.03178 c 2.143926,-1.71201 5.679813,0.30399 5.303824,3.00798 -0.143991,2.48 -3.607875,4.152 -5.455814,2.256 -1.735948,-1.256 -1.535956,-4.064 0.15199,-5.26398 z"
     id="path222"
     inkscape:connector-curvature="0"
     style="fill:#14682e" />
  <path
     d="m 67.320112,168.95177 c 2.391917,-1.648 5.783803,1.128 4.791837,3.768 -0.647974,2.24799 -3.847869,3.35999 -5.431822,1.384 -1.74393,-1.392 -1.183954,-4.112 0.639985,-5.152 z"
     id="path224"
     inkscape:connector-curvature="0"
     style="fill:#14682e" />
  <path
     d="m 80.967654,180.71175 c -0.423993,-2.66399 1.895923,-5.31199 4.607839,-5.18399 2.567913,-0.176 3.879877,2.328 5.287813,4.016 28.975024,0.04 57.950104,0.056 86.925074,-0.008 4.55984,4.328 8.83968,8.95199 13.37557,13.29598 1.42401,1.59999 3.69588,1.328 5.63181,1.40799 25.95107,-0.17599 51.91023,0.072 77.86141,-0.12 1.58389,-1.824 3.42373,-3.39998 5.33578,-4.87198 l 0,1.28799 c -1.09597,0.99999 -2.20795,2.00799 -3.13594,3.15999 -0.99191,2.44001 1.87195,3.872 3.13594,5.47999 l 0,0.912 c -2.06399,-1.184 -3.83982,-2.77599 -5.32785,-4.61599 -27.28706,-0.136 -54.57411,-0.008 -81.85318,-0.064 0,14.11998 -0.0717,28.23195 0.0313,42.35194 1.26396,1.03199 2.71188,1.94399 3.63987,3.31999 1.088,2.35199 -0.16795,5.43999 -2.6559,6.26399 -2.83191,1.184 -6.31979,-1.16 -6.27978,-4.24 -0.224,-2.57599 2.31997,-3.95199 3.99189,-5.40798 0.0957,-12.55999 -0.0637,-25.11998 0.0879,-37.67995 -0.0958,-2.10399 0.32798,-4.59999 -1.39199,-6.19999 -4.19178,-4.42399 -8.70365,-8.54399 -12.89555,-12.97599 -28.84698,-0.048 -57.69401,-0.10399 -86.533042,0.032 -1.023963,1.21599 -1.919947,2.59999 -3.255901,3.49599 -2.687902,1.448 -6.367781,-0.624 -6.583778,-3.65599 z"
     id="path226"
     inkscape:connector-curvature="0"
     style="fill:#2ee78a" />
  <path
     d="m 84.263546,177.11175 c 2.503914,-1.38398 5.791815,1.80001 4.407845,4.352 -0.863968,2.40799 -4.551857,2.736 -5.855813,0.544 -1.239941,-1.67999 -0.391965,-4.09599 1.447968,-4.896 z"
     id="path228"
     inkscape:connector-curvature="0"
     style="fill:#14682e" />
  <path
     d="m 251.56186,179.71975 c 2.46397,-1.25599 5.52787,1.776 4.32788,4.264 -0.7119,2.032 -3.5118,3 -5.15175,1.44 -2.11198,-1.39201 -1.55999,-4.93599 0.82387,-5.704 z"
     id="path230"
     inkscape:connector-curvature="0"
     style="fill:#14682e" />
  <path
     d="m 32.1213,183.36776 c 1.639944,-2.256 5.359825,-2.44 7.183758,-0.32001 1.66394,1.8 0.751983,4.39199 0.695984,6.55999 6.431775,6.62399 13.079552,13.03999 19.559327,19.61597 1.503952,1.304 1.775944,3.288 1.719946,5.16799 -0.08806,17.87998 -0.04794,35.75995 -0.03204,53.63993 -4.007867,3.99999 -7.847737,8.16798 -12.055597,11.96798 l -1.839937,0 c 3.063899,-2.76 5.8238,-5.84 8.839702,-8.656 1.25596,-1.30399 2.719905,-2.50399 3.535879,-4.14399 0.44799,-2.37599 0.263994,-4.80799 0.287992,-7.20798 -0.06402,-16.18397 0.03996,-32.35995 -0.05604,-48.53593 -6.527772,-6.35199 -12.871562,-12.87998 -19.335342,-19.29597 -1.911932,-2.128 -5.063829,-1.12001 -7.471749,-2.15201 -2.135926,-1.39199 -2.615911,-4.65599 -1.031963,-6.63997 z"
     id="path232"
     inkscape:connector-curvature="0"
     style="fill:#2ee689" />
  <path
     d="m 33.889247,183.49574 c 2.103925,-1.784 5.551807,0.27201 5.327817,2.888 -0.04796,2.36 -3.095899,4.176 -5.087835,2.68 -2.007929,-1.112 -2.199914,-4.31999 -0.239982,-5.568 z"
     id="path234"
     inkscape:connector-curvature="0"
     style="fill:#14682e" />
  <path
     d="m 0.00238914,189.35974 c 1.97593306,1.48 5.19982416,2.776 4.69584156,5.832 -0.00796,2.66399 -2.8399041,3.67199 -4.69584156,4.90398 l 0,-1.072 c 1.28795636,-1.51999 4.06386246,-2.88 3.04789686,-5.26398 -0.88797,-1.224 -2.0239314,-2.224 -3.04789686,-3.32 l 0,-1.08 z"
     id="path236"
     inkscape:connector-curvature="0"
     style="fill:#2cdb81" />
  <path
     d="m 81.191644,193.16773 c 0.879971,-2.648 4.183839,-3.74399 6.60778,-2.536 1.271932,0.87201 1.999944,2.296 2.903878,3.512 6.46383,0.0561 12.919598,0.0561 19.383338,0 1.14399,-1.568 2.08796,-3.79999 4.31989,-3.94399 3.19189,-0.67199 6.21579,2.62399 5.28784,5.74399 -0.62399,3.072 -4.66384,4.544 -7.16776,2.73599 -0.99999,-0.92799 -1.67198,-2.12799 -2.44793,-3.23199 -6.46382,-0.04 -12.927581,-0.048 -19.391353,0.008 -1.239957,1.79198 -2.51193,4.25599 -5.095818,3.98399 -3.175912,0.208 -5.567829,-3.38401 -4.399865,-6.27199 z"
     id="path238"
     inkscape:connector-curvature="0"
     style="fill:#2de387" />
  <path
     d="m 127.2941,196.74373 c -1.24797,-2.784 0.66398,-6.512 3.84788,-6.57599 2.84786,-0.456 5.44783,2.22399 5.09583,5.03199 -0.0636,2.344 -2.40796,3.496 -3.95189,4.85599 -0.10396,12.64798 -0.0796,25.30396 -0.007,37.95995 1.30395,1.14399 2.88791,2.096 3.7119,3.67999 0.32798,1.832 -0.29601,3.65599 -0.592,5.456 3.16791,3.25599 6.34379,6.51199 9.69567,9.58398 1.72796,-0.008 3.49589,-0.376 5.19986,0.088 1.83991,0.8 2.87189,2.888 2.56788,4.84799 -0.0637,2.30399 -2.48793,3.32 -4.00782,4.616 -0.0796,4.56799 -0.0477,9.13599 -0.0556,13.71198 l -1.03197,0 c 0,-4.56 0.024,-9.11999 -0.0311,-13.67998 -1.28804,-0.984 -2.69591,-1.87201 -3.67191,-3.176 -0.32796,-1.712 -0.112,-3.456 -0.0558,-5.17599 -3.17593,-3.44799 -6.48782,-6.76799 -9.93564,-9.93598 -2.58392,-0.064 -6.18379,-0.11201 -6.91186,-3.256 -1.1919,-3.088 1.65601,-5.19199 3.76797,-6.808 0.0476,-12.63997 0.0958,-25.28795 -0.0154,-37.92793 -1.26393,-1.024 -2.68786,-1.936 -3.6159,-3.296 z"
     id="path240"
     inkscape:connector-curvature="0"
     style="fill:#2cde83" />
  <path
     d="m 141.95765,196.49573 c -1.30402,-2.92 1.23993,-6.61598 4.45576,-6.35999 2.04797,-0.144 3.29591,1.712 4.57585,2.97599 -0.43997,0.57601 -0.87992,1.152 -1.32796,1.728 -0.68794,-1.592 -1.72785,-3.97599 -3.92779,-3.30399 -3.15987,0.552 -3.55193,5.35999 -0.49601,6.37599 1.95189,0.968 3.46388,-0.864 4.08782,-2.488 0.46407,-0.096 1.39999,-0.272 1.86396,-0.36 -0.78398,2.02399 -2.31992,3.55199 -3.91186,4.95999 -0.272,12.67998 -0.16799,25.37597 -0.0557,38.06394 1.36796,1.32 3.3279,2.39201 3.79191,4.376 -0.0554,1.57599 -0.53604,3.096 -0.91199,4.61599 3.22388,3.248 6.42378,6.52 9.75971,9.66399 1.5999,-0.072 3.21583,-0.28 4.8238,-0.064 2.59992,0.72 3.76785,4.06399 2.61596,6.39198 -0.93599,1.36801 -2.31995,2.31999 -3.56792,3.376 -0.0878,4.51199 -0.0477,9.03198 -0.024,13.55198 l -1.31195,0 c -0.007,-4.56799 0.0311,-9.13599 -0.0718,-13.70399 -1.24795,-1.064 -2.71187,-1.96799 -3.57593,-3.39198 -0.34396,-1.656 -0.1359,-3.36001 -0.0796,-5.024 -3.21584,-3.256 -6.41576,-6.53599 -9.7516,-9.67999 -2.63195,-0.216 -6.31186,-0.28799 -7.08785,-3.47199 -1.10389,-3.01599 1.68801,-5.08799 3.75192,-6.66399 0.12003,-12.68797 0.15201,-25.37596 -0.0153,-38.06394 -1.25597,-1.09601 -2.75195,-2.032 -3.6079,-3.504 z"
     id="path242"
     inkscape:connector-curvature="0"
     style="fill:#2bd77e" />
  <path
     d="m 156.83713,196.70373 c -0.90404,-2.28 -0.007,-5.38399 2.44786,-6.23999 2.78395,-1.224 6.47181,0.79999 6.49586,3.952 0.45594,2.688 -2.15195,4.14399 -3.88791,5.59999 -0.0718,12.71997 -0.16797,25.43996 0.0559,38.15194 1.2559,1.08799 2.78386,2 3.61586,3.504 0.13596,1.63199 -0.12003,3.27198 -0.29603,4.89599 3.31994,3.47999 6.67177,6.92799 10.26366,10.13598 1.71994,-0.04 3.50386,-0.296 5.19982,0.16001 2.19997,1.00798 3.0959,3.91998 2.19194,6.09599 -0.90399,1.40799 -2.39992,2.27198 -3.67184,3.31198 -0.0798,4.576 -0.0479,9.152 -0.0559,13.72799 l -1.2719,0 c -0.007,-4.52 0.031,-9.03999 -0.0235,-13.55998 -1.20795,-1.088 -2.57592,-2.024 -3.51982,-3.368 -0.56799,-1.656 -0.0718,-3.432 -0.0718,-5.12799 -3.21583,-3.6 -6.68775,-6.96799 -10.1756,-10.30399 -2.76788,0.41601 -6.63978,0.504 -7.45578,-2.91199 -1.09593,-3.088 1.64797,-5.16 3.83182,-6.70399 0.0718,-12.65598 0.11207,-25.31197 -0.0153,-37.96795 -1.27193,-1.03999 -2.79997,-1.89599 -3.65586,-3.35199 z"
     id="path244"
     inkscape:connector-curvature="0"
     style="fill:#2cdc81" />
  <path
     d="m 172.97253,195.99173 c -0.86397,-2.80799 1.608,-6.048 4.56786,-5.85599 3.00792,-0.208 5.47184,3.01599 4.63981,5.86399 -0.43995,1.88 -2.35993,2.728 -3.75186,3.792 -0.12798,12.69597 -0.12798,25.39196 0,38.08793 1.38404,1.10401 3.23994,2.00801 3.73594,3.856 0.76798,2.59199 -1.17603,5.53599 -3.8479,5.90399 -3.17589,0.648 -6.35178,-2.77599 -5.33584,-5.89599 0.432,-1.91199 2.36792,-2.78399 3.79189,-3.84798 0.11199,-12.69599 0.11199,-25.39197 0,-38.08796 -1.42397,-1.056 -3.35989,-1.91999 -3.7999,-3.81599 z"
     id="path246"
     inkscape:connector-curvature="0"
     style="fill:#2ad47c" />
  <path
     d="m 0.00238914,190.43974 c 1.02396546,1.096 2.15992686,2.096 3.04789686,3.32 1.0159656,2.38398 -1.7599405,3.74399 -3.04789686,5.26398 l 0,-8.58398 z"
     id="path248"
     inkscape:connector-curvature="0"
     style="fill:#14682e" />
  <path
     d="m 84.359527,191.69574 c 2.159948,-1.144 4.983829,1.19199 4.559866,3.52799 -0.248002,2.44 -3.591893,4.008 -5.415834,2.128 -2.015928,-1.448 -1.463943,-4.84 0.855968,-5.65599 z"
     id="path250"
     inkscape:connector-curvature="0"
     style="fill:#14682e" />
  <path
     d="m 113.96652,191.68774 c 2.15991,-1.032 4.88787,1.144 4.51987,3.48799 -0.19999,2.464 -3.55189,4 -5.39187,2.19999 -2.08788,-1.416 -1.4559,-4.87998 0.872,-5.68798 z"
     id="path252"
     inkscape:connector-curvature="0"
     style="fill:#14682e" />
  <path
     d="m 130.68596,191.56774 c 2.71189,-0.96 5.55983,2.816 3.5919,5.07199 -1.17596,2.00799 -4.22385,1.984 -5.41582,0.008 -1.47994,-1.76 -0.192,-4.44799 1.82392,-5.07999 z"
     id="path254"
     inkscape:connector-curvature="0"
     style="fill:#14682e" />
  <path
     d="m 160.29299,191.56774 c 2.43993,-0.77601 5.18382,2.23199 3.86384,4.54399 -0.83994,2.04 -3.78381,2.768 -5.31978,1.06399 -1.91997,-1.66399 -0.93598,-5.01598 1.45594,-5.60798 z"
     id="path256"
     inkscape:connector-curvature="0"
     style="fill:#14682e" />
  <path
     d="m 174.3165,193.24773 c 1.31194,-0.78399 2.76794,-2.43999 4.43181,-1.50399 2.72798,0.87199 2.77595,5.176 0.0477,6.08798 -1.67993,0.96 -3.15186,-0.66399 -4.47181,-1.47999 -0.007,-0.77599 -0.007,-2.32799 -0.007,-3.104 z"
     id="path258"
     inkscape:connector-curvature="0"
     style="fill:#14682e" />
  <path
     d="m 276.85701,193.69574 c 0.92799,-1.15201 2.03997,-2.16 3.13594,-3.15999 l 0,8.63998 c -1.26399,-1.608 -4.12785,-3.03999 -3.13594,-5.47999 z"
     id="path260"
     inkscape:connector-curvature="0"
     style="fill:#14682e" />
  <path
     d="m 0.00238914,204.04772 c 1.87993606,1.512 4.93583326,2.696 4.77583876,5.59199 0,2.8 -2.9998989,3.99999 -4.77583876,5.624 l 0,-1.56001 c 1.16796036,-1.504 3.68787526,-2.592 3.21589126,-4.84799 -0.9279682,-1.32799 -2.1279283,-2.42399 -3.21589126,-3.59999 l 0,-1.208 z"
     id="path262"
     inkscape:connector-curvature="0"
     style="fill:#2ad27b" />
  <path
     d="m 23.881587,210.38372 c -0.78398,-3.416 2.999894,-6.576 6.223779,-5.18401 2.887905,0.84 3.863877,4.736 2.167932,7.06399 -0.927971,0.97601 -2.111935,1.65601 -3.215892,2.416 -0.04799,15.12798 -0.06402,30.25596 0.0064,45.37594 1.799933,1.06399 4.151859,2.26399 3.999865,4.73598 0.415984,2.848 -2.367925,5.31999 -5.135829,4.856 -3.439881,-0.128 -5.327819,-4.67199 -3.287892,-7.33599 0.895975,-0.92 2.031939,-1.552 3.087899,-2.25599 0.08808,-15.13599 0.05604,-30.27195 0.01594,-45.40794 -1.511949,-1.16 -3.679876,-2.10399 -3.863872,-4.26398 z"
     id="path264"
     inkscape:connector-curvature="0"
     style="fill:#2de286" />
  <path
     d="m 201.05957,209.63171 c -0.12796,-3.176 3.51992,-5.83999 6.46385,-4.496 1.46389,0.89601 2.45586,2.344 3.56786,3.60801 21.18328,0.104 42.36655,0.18399 63.54979,-0.04 1.67199,-1.752 3.51191,-3.31999 5.35188,-4.88799 l 0,1.616 c -1.13596,1.504 -3.81586,2.592 -3.15986,4.86399 0.89591,1.344 2.0959,2.432 3.15986,3.64 l 0,1.26399 c -1.85593,-1.48799 -3.69587,-3.00799 -5.35188,-4.71199 -21.18324,-0.19999 -42.37455,-0.152 -63.55776,-0.024 -1.088,1.216 -2.06398,2.608 -3.47195,3.49599 -2.89586,1.408 -6.60773,-1.16 -6.55179,-4.32799 z"
     id="path266"
     inkscape:connector-curvature="0"
     style="fill:#2ad17a" />
  <path
     d="m 0.00238914,205.25572 c 1.08796296,1.176 2.28792306,2.272 3.21589126,3.59999 0.471984,2.25599 -2.0479309,3.34399 -3.21589126,4.84799 l 0,-8.44798 z"
     id="path268"
     inkscape:connector-curvature="0"
     style="fill:#14682e" />
  <path
     d="m 26.697484,206.76772 c 1.855946,-1.28 4.655844,-0.10401 5.031832,2.11999 0.719976,2.69599 -2.767909,5.23999 -5.063828,3.47199 -2.079926,-1.15199 -2.039929,-4.45598 0.03209,-5.59198 z"
     id="path270"
     inkscape:connector-curvature="0"
     style="fill:#14682e" />
  <path
     d="m 204.28347,206.59172 c 1.86398,-0.768 4.22385,0.08 4.67189,2.17599 1.11198,3.05601 -3.56791,5.66399 -5.5438,2.976 -1.70399,-1.52 -0.88006,-4.072 0.87191,-5.15199 z"
     id="path272"
     inkscape:connector-curvature="0"
     style="fill:#14682e" />
  <path
     d="m 276.83309,210.29571 c -0.656,-2.27199 2.0239,-3.35999 3.15986,-4.86399 l 0,8.50399 c -1.06396,-1.208 -2.26395,-2.296 -3.15986,-3.64 z"
     id="path274"
     inkscape:connector-curvature="0"
     style="fill:#14682e" />
  <path
     d="m 99.311032,217.7517 c 2.623878,-1.08 5.535838,2.32 4.023838,4.704 -0.86393,1.93598 -3.655865,2.53599 -5.159815,0.97599 -2.023895,-1.53599 -1.191951,-4.94399 1.135977,-5.67999 z"
     id="path276"
     inkscape:connector-curvature="0"
     style="fill:#14682e" />
  <path
     d="m 7.9701201,223.71169 c 1.3119559,-1.576 2.4399199,-3.95199 4.8158369,-3.968 2.823903,-0.4 5.447822,2.192 5.047831,5.024 -0.07996,2.328 -2.423921,3.456 -3.959871,4.79999 -0.07196,10.10399 -0.111993,20.20797 0.02401,30.31196 1.567948,1.34399 3.991872,2.464 3.943871,4.87199 0.28799,2.728 -2.31192,5.23999 -5.015834,4.90399 -2.479916,-0.048 -4.5198427,-2.4 -4.271852,-4.85599 -0.056015,-2.424 2.35992,-3.568 3.943868,-4.912 0.143992,-10.08798 0.111999,-20.17596 0.02401,-30.26395 -1.623955,-1.408 -3.1519059,-2.91999 -4.5838565,-4.52799 -2.6399111,-0.064 -5.2878214,-0.088 -7.93573245,-0.112 l 0,-1.192 c 2.65586825,-0.008 5.31177845,-0.024 7.96768865,-0.0801 z"
     id="path278"
     inkscape:connector-curvature="0"
     style="fill:#2de387" />
  <path
     d="m 38.649082,225.56768 c -0.831967,-2.79999 1.543947,-6.08798 4.543845,-5.85598 3.079901,-0.376 5.471811,3.03998 4.639843,5.86399 -0.439984,1.89599 -2.399913,2.71999 -3.815872,3.776 -0.07197,10.23997 -0.159999,20.48796 0.04797,30.71994 2.239921,1.232 4.815833,3.392 3.711874,6.296 -0.959967,4.35999 -8.047728,4.44799 -9.071694,0.04 -1.143963,-2.91999 1.535951,-5.09598 3.719878,-6.45599 0.01593,-10.19198 0.07197,-20.39197 -0.03996,-30.59196 -1.39995,-1.05599 -3.311892,-1.912 -3.735877,-3.79199 z"
     id="path280"
     inkscape:connector-curvature="0"
     style="fill:#2ad47c" />
  <path
     d="m 201.30758,225.52769 c -0.83198,-2.744 1.38399,-5.84799 4.28793,-5.784 2.65581,-0.36799 4.03175,2.264 5.43175,4.008 22.99122,0.088 45.97444,-0.008 68.96569,0.048 l 0,1.21599 c -22.99125,0.024 -45.99047,-0.0561 -68.98165,0.04 -1.00801,1.192 -1.88796,2.54399 -3.18392,3.45599 -2.47991,1.384 -5.9518,-0.192 -6.5198,-2.98399 z"
     id="path282"
     inkscape:connector-curvature="0"
     style="fill:#2ee88a" />
  <path
     d="m 12.313973,221.11169 c 2.471914,-0.83999 5.255823,2.23199 3.919865,4.576 -0.855969,2.07199 -3.823868,2.75999 -5.359824,1.016 -1.9599246,-1.648 -0.9359594,-4.99199 1.439959,-5.592 z"
     id="path284"
     inkscape:connector-curvature="0"
     style="fill:#14682e" />
  <path
     d="m 41.968966,221.34369 c 1.815938,-1 4.439851,0.52801 4.471857,2.608 0.679966,2.83999 -3.303897,4.91199 -5.335823,2.90399 -1.879936,-1.45599 -1.335951,-4.67198 0.863966,-5.51199 z"
     id="path286"
     inkscape:connector-curvature="0"
     style="fill:#14682e" />
  <path
     d="m 205.00346,221.0397 c 2.76793,-0.75201 5.43981,2.80799 3.58383,5.15199 -1.25591,2.11999 -4.70379,1.95999 -5.74371,-0.27201 -1.24004,-1.87999 0.21592,-4.27999 2.15988,-4.87998 z"
     id="path288"
     inkscape:connector-curvature="0"
     style="fill:#14682e" />
  <path
     d="m 83.719561,231.71968 c 2.911895,-1.55201 6.695774,1.11199 6.647775,4.30399 0.09599,2.48 -2.319927,3.83199 -3.911867,5.30399 -0.224018,10.43998 -0.01637,20.88798 -0.112013,31.33596 -2.471907,2.46399 -4.831826,5.05599 -7.495731,7.33599 l -1.959935,0 c 2.783904,-2.49601 5.311821,-5.256 7.951724,-7.89599 -0.06411,-10.26399 0.111989,-20.52797 -0.096,-30.78396 -1.21595,-1.072 -2.599903,-2.024 -3.479876,-3.40799 -1.167957,-2.28 0.159994,-5.23999 2.455921,-6.19199 z"
     id="path290"
     inkscape:connector-curvature="0"
     style="fill:#2ad37b" />
  <path
     d="m 84.207531,233.04767 c 2.031952,-1.056 4.743836,0.664 4.639855,2.952 0.303968,2.792 -3.687897,4.43999 -5.519806,2.36801 -1.719952,-1.44 -1.08797,-4.416 0.879951,-5.32001 z"
     id="path292"
     inkscape:connector-curvature="0"
     style="fill:#14682e" />
  <path
     d="m 99.367038,233.00768 c 2.727892,-0.89601 5.407832,2.81599 3.527852,5.10399 -1.31995,2.29599 -5.063785,1.74399 -5.887795,-0.68001 -0.83996,-1.83999 0.53601,-3.92798 2.359943,-4.42398 z"
     id="path294"
     inkscape:connector-curvature="0"
     style="fill:#14682e" />
  <path
     d="m 201.18756,243.91166 c -0.7439,-3.056 2.192,-6.23199 5.32789,-5.56 2.26389,0.064 3.26385,2.42401 4.40784,4.008 6.46375,0.0561 12.93555,0.064 19.40733,-0.008 1.15991,-1.416 2.06388,-3.48798 4.15187,-3.62399 2.71187,-0.632 5.66376,1.616 5.56784,4.43999 0.24795,2.96799 -2.83992,5.55999 -5.71986,4.728 -2.16791,-0.304 -3.05593,-2.528 -4.11191,-4.136 -6.4317,-0.096 -12.86345,-0.144 -19.28725,0.024 -1.13599,1.77601 -2.67999,3.216 -4.48792,4.272 -0.0554,2.64 -0.0554,5.27999 -0.0151,7.91998 1.75199,1.128 4.13584,2.296 4.02388,4.76 0.40801,2.71999 -2.17595,5.30398 -4.89585,4.93599 -3.18383,0.184 -5.4078,-3.64 -4.09581,-6.41599 0.63198,-1.592 2.33583,-2.30399 3.60787,-3.296 0.0393,-2.60799 0.0476,-5.21599 0.007,-7.83198 -1.48791,-1.18401 -3.5839,-2.112 -3.8879,-4.216 z"
     id="path296"
     inkscape:connector-curvature="0"
     style="fill:#2bd67d" />
  <path
     d="m 247.46599,239.43966 c 2.57596,-1.784 6.83984,-0.32799 7.15976,2.976 0.91199,3.304 -2.62385,6.53599 -5.83976,5.456 -3.65581,-0.896 -4.53581,-6.504 -1.32,-8.432 z"
     id="path298"
     inkscape:connector-curvature="0"
     style="fill:#2cdd82" />
  <path
     d="m 260.30556,245.34366 c -1.00789,-2.208 -0.1679,-5.27199 2.1999,-6.208 2.92802,-1.59199 6.89581,0.78401 6.80783,4.144 0.14398,2.52 -2.28797,3.88799 -3.9119,5.34399 -0.18397,8.66399 -0.17601,17.33598 0,25.99996 1.79199,1.512 3.26395,3.35199 4.4559,5.376 l -1.13599,0 c -1.49595,-1.176 -2.55194,-3.744 -4.82382,-3.208 -1.43992,0.776 -2.42396,2.12 -3.59988,3.208 l -1.01599,0 c 1.11997,-2.12 2.71994,-3.91999 4.62383,-5.376 0.15202,-8.66398 0.11204,-17.33597 0.0152,-25.99996 -1.25593,-1.02399 -2.6719,-1.928 -3.6159,-3.27999 z"
     id="path300"
     inkscape:connector-curvature="0"
     style="fill:#2ad57d" />
  <path
     d="m 130.526,240.15966 c 2.63987,-1.088 5.59976,2.27201 3.98384,4.696 -1.03194,2.32799 -4.77584,2.34399 -5.82381,0.016 -1.12792,-1.712 0,-4.088 1.83997,-4.71199 z"
     id="path302"
     inkscape:connector-curvature="0"
     style="fill:#14682e" />
  <path
     d="m 145.05353,240.27167 c 2.22389,-1.168 5.1838,1.26399 4.54378,3.68799 -0.27998,2.52799 -3.93583,3.52799 -5.5998,1.67199 -1.62387,-1.53598 -0.99194,-4.51198 1.05602,-5.35998 z"
     id="path304"
     inkscape:connector-curvature="0"
     style="fill:#14682e" />
  <path
     d="m 159.509,240.43167 c 2.4559,-1.72 5.83179,1.31999 4.75988,3.93599 -0.67999,2.11999 -3.67992,3.072 -5.30386,1.432 -1.74391,-1.392 -1.42392,-4.352 0.54398,-5.36799 z"
     id="path306"
     inkscape:connector-curvature="0"
     style="fill:#14682e" />
  <path
     d="m 174.03654,241.42367 c 1.82394,-1.08001 4.19185,-2.768 5.9838,-0.656 2.44787,2.32798 -0.79198,6.89599 -3.71188,5.21599 -1.87198,-0.72 -1.86397,-2.936 -2.27192,-4.55999 z"
     id="path308"
     inkscape:connector-curvature="0"
     style="fill:#14682e" />
  <path
     d="m 190.53992,240.07167 c 2.39995,-1.63201 5.86384,1.13599 4.90392,3.83199 -0.64803,2.288 -3.88793,3.344 -5.55184,1.464 -1.70395,-1.472 -1.16002,-4.184 0.64792,-5.29599 z"
     id="path310"
     inkscape:connector-curvature="0"
     style="fill:#14682e" />
  <path
     d="m 204.17943,240.11967 c 1.84799,-1.176 4.57591,0.10399 4.87194,2.27999 0.64793,2.60799 -2.95993,5.17599 -5.07188,3.288 -2.11993,-1.288 -1.89587,-4.376 0.19994,-5.56799 z"
     id="path312"
     inkscape:connector-curvature="0"
     style="fill:#14682e" />
  <path
     d="m 233.92251,240.30367 c 2.25593,-1.29601 5.41575,1.23999 4.61587,3.74399 -0.44802,2.74399 -4.73592,3.416 -5.98383,0.95999 -1.32797,-1.56798 -0.22401,-3.83198 1.36796,-4.70398 z"
     id="path314"
     inkscape:connector-curvature="0"
     style="fill:#14682e" />
  <path
     d="m 248.94604,240.20767 c 1.9599,-0.872 4.44778,0.83999 4.44778,2.95198 0.20001,2.21601 -2.54388,4.416 -4.58385,3.192 -2.71995,-0.94399 -2.59991,-5.31999 0.13607,-6.14398 z"
     id="path316"
     inkscape:connector-curvature="0"
     style="fill:#14682e" />
  <path
     d="m 263.40151,240.23966 c 2.59991,-1.304 5.9278,2.408 3.98377,4.784 -1.13584,2.224 -4.87177,2.072 -5.75968,-0.28 -0.91999,-1.67999 0.0958,-3.79199 1.77591,-4.504 z"
     id="path318"
     inkscape:connector-curvature="0"
     style="fill:#14682e" />
  <path
     d="m 99.975062,265.66363 c -4.671903,0.024 -5.847854,-7.35999 -1.512023,-8.89599 2.911911,-1.50399 5.735831,0.856 6.919811,3.416 6.99979,0.272 14.01552,0.064 21.02329,0.128 1.34391,-2.16 3.43186,-4.75999 6.33579,-3.816 3.31991,0.576 4.66382,5.17599 2.43989,7.57599 -1.51995,1.872 -4.53582,2.144 -6.4317,0.728 -0.91203,-0.904 -1.48804,-2.072 -2.18398,-3.128 -7.04782,-0.104 -14.10351,-0.11199 -21.1513,0.008 -1.08,2.072 -2.70391,4.49599 -5.439778,3.984 z"
     id="path320"
     inkscape:connector-curvature="0"
     style="fill:#2bd77e" />
  <path
     d="m 230.95456,259.33564 c 1.35998,-4.28 8.31976,-3.72799 9.00769,0.70399 0.85607,2.936 -1.95188,4.71999 -3.8958,6.25599 -0.10402,4.568 -0.0637,9.136 -0.0715,13.70399 l -1.29603,0 c -0.007,-4.52 0.0309,-9.03999 -0.0236,-13.55998 -2.19987,-1.656 -5.05572,-3.984 -3.71985,-7.10399 z"
     id="path322"
     inkscape:connector-curvature="0"
     style="fill:#2bd67d" />
  <path
     d="m 245.7941,263.06364 c -0.84802,-2.288 -0.10395,-5.296 2.32789,-6.248 2.83198,-1.45599 6.64781,0.768 6.64781,3.99999 0.29591,2.61601 -2.24798,4.10399 -3.8559,5.712 -0.0477,4.48799 -0.007,8.98398 0.0151,13.47198 l -1.33595,0 c -0.007,-4.56 0.024,-9.128 -0.0561,-13.68799 -1.31194,-1.00799 -2.79989,-1.864 -3.74381,-3.24798 z"
     id="path324"
     inkscape:connector-curvature="0"
     style="fill:#2ad37b" />
  <path
     d="m 98.743031,258.18364 c 2.543949,-1.904 6.215829,1.672 4.599859,4.28 -0.97599,2.17599 -4.263828,2.55999 -5.5678,0.48799 -1.351962,-1.43199 -0.607958,-3.856 0.967941,-4.76799 z"
     id="path326"
     inkscape:connector-curvature="0"
     style="fill:#14682e" />
  <path
     d="m 129.97403,258.16764 c 2.54389,-1.86399 6.1597,1.696 4.57581,4.27999 -0.95994,2.192 -4.31982,2.59199 -5.6078,0.504 -1.31192,-1.48 -0.60799,-3.88 1.03199,-4.78399 z"
     id="path328"
     inkscape:connector-curvature="0"
     style="fill:#14682e" />
  <path
     d="m 147.38144,257.84764 c 2.10391,-0.784 4.63983,1.544 4.16782,3.74399 -0.23997,2.52 -3.71984,3.68 -5.47981,1.904 -2.00794,-1.616 -1.02396,-4.95199 1.31199,-5.64799 z"
     id="path330"
     inkscape:connector-curvature="0"
     style="fill:#14682e" />
  <path
     d="m 161.9729,257.95964 c 2.37594,-1.144 5.47184,1.95199 4.17589,4.35999 -0.83201,2.12799 -3.96788,2.736 -5.49578,1.008 -1.59995,-1.664 -0.85603,-4.632 1.31989,-5.36799 z"
     id="path332"
     inkscape:connector-curvature="0"
     style="fill:#14682e" />
  <path
     d="m 177.76437,257.81563 c 2.45594,-0.83199 5.03183,2.184 3.89587,4.52 -0.83193,2.26401 -4.21587,2.752 -5.6398,0.784 -1.71194,-1.71999 -0.43996,-4.73599 1.74393,-5.304 z"
     id="path334"
     inkscape:connector-curvature="0"
     style="fill:#14682e" />
  <path
     d="m 204.97948,257.83164 c 2.97587,-0.98401 5.61583,3.416 3.15984,5.55199 -1.86388,2.00799 -5.07181,0.576 -5.75179,-1.808 -0.088,-1.63999 0.99203,-3.27999 2.59195,-3.74399 z"
     id="path336"
     inkscape:connector-curvature="0"
     style="fill:#14682e" />
  <path
     d="m 234.57042,257.79964 c 2.38395,-0.76801 5.08791,2.304 3.75191,4.59199 -0.88796,2.44 -4.60782,2.552 -5.79185,0.312 -1.43187,-1.81599 0.0798,-4.31999 2.03994,-4.90399 z"
     id="path338"
     inkscape:connector-curvature="0"
     style="fill:#14682e" />
  <path
     d="m 249.14593,257.91164 c 2.45599,-1 5.34389,2.27999 3.86393,4.63199 -1.07993,2.456 -5.11986,2.344 -5.94382,-0.248 -0.75196,-1.77599 0.39199,-3.71199 2.07989,-4.38399 z"
     id="path340"
     inkscape:connector-curvature="0"
     style="fill:#14682e" />
  <path
     d="m 12.185982,261.83164 c 2.8079,-1.208 5.799797,2.87999 3.663879,5.15998 -1.207971,1.83201 -4.159868,1.80001 -5.335833,-0.048 -1.5199432,-1.69599 -0.343986,-4.46399 1.671954,-5.11199 z"
     id="path342"
     inkscape:connector-curvature="0"
     style="fill:#14682e" />
  <path
     d="m 27.417463,261.87164 c 2.319922,-1.032 5.183819,1.76799 4.239858,4.14399 -0.583978,2.28799 -3.823872,3.16799 -5.455817,1.432 -1.93593,-1.552 -1.071973,-4.904 1.215959,-5.57599 z"
     id="path344"
     inkscape:connector-curvature="0"
     style="fill:#14682e" />
  <path
     d="m 41.928969,262.01564 c 3.615883,-1.92001 6.543781,4.27998 2.815904,5.91998 -3.855859,2.256 -6.879761,-4.35199 -2.815904,-5.91998 z"
     id="path346"
     inkscape:connector-curvature="0"
     style="fill:#14682e" />
  <path
     d="m 57.920431,279.99961 c 1.359951,-2.00001 2.27192,-5.28 5.29582,-5.056 3.103895,-0.32799 4.351854,2.896 5.647805,5.056 l -1.303953,0 c -1.335952,-1.39201 -2.319926,-3.424 -4.359854,-3.888 -1.767936,0.88 -2.927894,2.528 -4.295851,3.888 l -0.983967,0 z"
     id="path348"
     inkscape:connector-curvature="0"
     style="fill:#2ad47c" />
  <path
     d="m 95.175154,279.99961 c 1.015972,-2.08801 1.975945,-5.128 4.847826,-5.03999 3.20793,-0.51201 4.41592,2.89599 5.79182,5.03999 l -1.18397,0 c -1.46388,-1.336 -2.62384,-4.35199 -5.055838,-3.608 -1.383938,0.98399 -2.391861,2.384 -3.559869,3.608 l -0.839969,0 z"
     id="path350"
     inkscape:connector-curvature="0"
     style="fill:#2cdd82" />
  <path
     d="m 126.37414,279.99961 c 0.99192,-2.104 1.95991,-5.104 4.83183,-5.04799 3.24783,-0.56801 4.47982,2.85599 5.83176,5.04799 l -1.23992,0 c -1.08,-1.224 -2.0399,-2.608 -3.36791,-3.584 -2.43186,-0.73599 -3.61588,2.33599 -5.20781,3.584 l -0.84795,0 z"
     id="path352"
     inkscape:connector-curvature="0"
     style="fill:#2bd77e" />
  <path
     d="m 99.574992,276.39161 c 2.431998,-0.74399 3.591958,2.272 5.055838,3.608 l -8.615707,0 c 1.168008,-1.224 2.175931,-2.62401 3.559869,-3.608 z"
     id="path354"
     inkscape:connector-curvature="0"
     style="fill:#14682e" />
  <path
     d="m 127.22209,279.99961 c 1.59193,-1.24801 2.77595,-4.31999 5.20781,-3.584 1.32801,0.976 2.28791,2.36 3.36791,3.584 l -8.57572,0 z"
     id="path356"
     inkscape:connector-curvature="0"
     style="fill:#14682e" />
  <path
     d="m 58.904398,279.99961 c 1.367957,-1.36 2.527915,-3.008 4.295851,-3.888 2.039928,0.464 3.023902,2.49599 4.359854,3.888 l -8.655705,0 z"
     id="path358"
     inkscape:connector-curvature="0"
     style="fill:#14682e" />
  <path
     d="m 260.2976,279.99961 c 1.17592,-1.088 2.15996,-2.432 3.59988,-3.208 2.27188,-0.536 3.32787,2.032 4.82382,3.208 l -8.4237,0 z"
     id="path360"
     inkscape:connector-curvature="0"
     style="fill:#14682e" />
</svg>
