<?xml version="1.0" encoding="UTF-8" standalone="no"?>
<svg
   xmlns:dc="http://purl.org/dc/elements/1.1/"
   xmlns:cc="http://creativecommons.org/ns#"
   xmlns:rdf="http://www.w3.org/1999/02/22-rdf-syntax-ns#"
   xmlns:svg="http://www.w3.org/2000/svg"
   xmlns="http://www.w3.org/2000/svg"
   xmlns:sodipodi="http://sodipodi.sourceforge.net/DTD/sodipodi-0.dtd"
   xmlns:inkscape="http://www.inkscape.org/namespaces/inkscape"
   height="60px"
   version="1.1"
   viewBox="0 0 60 60"
   width="60px"
   id="svg4944"
   inkscape:version="0.91 r13725"
   sodipodi:docname="facebook.svg">
  <metadata
     id="metadata4957">
    <rdf:RDF>
      <cc:Work
         rdf:about="">
        <dc:format>image/svg+xml</dc:format>
        <dc:type
           rdf:resource="http://purl.org/dc/dcmitype/StillImage" />
        <dc:title></dc:title>
      </cc:Work>
    </rdf:RDF>
  </metadata>
  <sodipodi:namedview
     pagecolor="#ffffff"
     bordercolor="#666666"
     borderopacity="1"
     objecttolerance="10"
     gridtolerance="10"
     guidetolerance="10"
     inkscape:pageopacity="0"
     inkscape:pageshadow="2"
     inkscape:window-width="1301"
     inkscape:window-height="744"
     id="namedview4955"
     showgrid="false"
     inkscape:zoom="3.9333333"
     inkscape:cx="30"
     inkscape:cy="30"
     inkscape:window-x="65"
     inkscape:window-y="24"
     inkscape:window-maximized="1"
     inkscape:current-layer="svg4944" />
  <defs
     id="defs4948" />
  <g
     fill="none"
     fill-rule="evenodd"
     id="flat"
     stroke="none"
     stroke-width="1">
    <g
       id="facebook">
      <path
         d="M30,60 C46.5685433,60 60,46.5685433 60,30 C60,13.4314567 46.5685433,0 30,0 C13.4314567,0 0,13.4314567 0,30 C0,46.5685433 13.4314567,60 30,60 Z"
         fill="#346DA6"
         id="Facebook" />
      <path
         d="M25.4622239,47.314313 L25.4622239,29.9989613 L21.9432889,29.9989612 L21.9432889,24.2593563 L25.4622239,24.2593563 L25.4622239,20.7883864 C25.4622239,16.1066422 26.8619948,12.730619 31.9881023,12.730619 L38.0863595,12.730619 L38.0863595,18.45844 L33.7922546,18.45844 C31.6418944,18.45844 31.1518737,19.8873763 31.1518737,21.3837609 L31.1518737,24.2593553 L37.7694231,24.2593558 L36.8661728,29.9989613 L31.1518737,29.9989613 L31.1518737,47.3143123 L25.4622239,47.314313 Z"
         fill="#FFFFFF"
         id="path4953" />
    </g>
  </g>
</svg>
