<?xml version="1.0" encoding="UTF-8" standalone="no"?>
<!-- Created with Inkscape (http://www.inkscape.org/) -->

<svg
   xmlns:dc="http://purl.org/dc/elements/1.1/"
   xmlns:cc="http://creativecommons.org/ns#"
   xmlns:rdf="http://www.w3.org/1999/02/22-rdf-syntax-ns#"
   xmlns:svg="http://www.w3.org/2000/svg"
   xmlns="http://www.w3.org/2000/svg"
   xmlns:sodipodi="http://sodipodi.sourceforge.net/DTD/sodipodi-0.dtd"
   xmlns:inkscape="http://www.inkscape.org/namespaces/inkscape"
   id="svg3355"
   version="1.1"
   inkscape:version="0.91 r13725"
   xml:space="preserve"
   width="586.53558"
   height="148.21146"
   viewBox="0 0 586.53558 148.21146"
   sodipodi:docname="front-logo.svg"
   inkscape:export-filename="/home/drazard/GitHub/BinghamtonACM/img/logo.png"
   inkscape:export-xdpi="93.303314"
   inkscape:export-ydpi="93.303314"><metadata
     id="metadata3361"><rdf:RDF><cc:Work
         rdf:about=""><dc:format>image/svg+xml</dc:format><dc:type
           rdf:resource="http://purl.org/dc/dcmitype/StillImage" /><dc:title></dc:title></cc:Work></rdf:RDF></metadata><defs
     id="defs3359" /><sodipodi:namedview
     pagecolor="#ffffff"
     bordercolor="#666666"
     borderopacity="1"
     objecttolerance="10"
     gridtolerance="10"
     guidetolerance="10"
     inkscape:pageopacity="0"
     inkscape:pageshadow="2"
     inkscape:window-width="1301"
     inkscape:window-height="744"
     id="namedview3357"
     showgrid="false"
     fit-margin-top="5"
     fit-margin-left="5"
     fit-margin-right="5"
     fit-margin-bottom="5"
     inkscape:zoom="0.78819445"
     inkscape:cx="376.7959"
     inkscape:cy="-35.111398"
     inkscape:window-x="65"
     inkscape:window-y="24"
     inkscape:window-maximized="1"
     inkscape:current-layer="g3365" /><g
     id="g3363"
     inkscape:groupmode="layer"
     inkscape:label="ink_ext_XXXXXX"
     transform="matrix(1.25,0,0,-1.25,-30.718061,374.7533)"><g
       id="g3365"
       transform="scale(0.1,0.1)"><path
         d="m 838.5903,1852.3348 -552.84581,552.852 552.84581,552.8396 552.8458,-552.8396 -552.8458,-552.852"
         style="fill:#0492d2;fill-opacity:1;fill-rule:nonzero;stroke:none"
         id="path3367"
         inkscape:connector-curvature="0" /><path
         d="m 1177.5508,2405.1868 c 0,-187.2274 -151.7393,-338.9667 -338.9605,-338.9667 -187.19205,0 -338.96052,151.7393 -338.96052,338.9667 0,187.2089 151.76847,338.9605 338.96052,338.9605 187.2212,0 338.9605,-151.7516 338.9605,-338.9605"
         style="fill:#ffffff;fill-opacity:1;fill-rule:nonzero;stroke:none"
         id="path3369"
         inkscape:connector-curvature="0" /><path
         d="m 1143.6568,2405.1868 c 0,-168.5121 -136.5606,-305.0435 -305.0665,-305.0435 -168.47515,0 -305.06646,136.5314 -305.06646,305.0435 0,168.4935 136.59131,305.0848 305.06646,305.0848 168.5059,0 305.0665,-136.5913 305.0665,-305.0848"
         style="fill:#0492d2;fill-opacity:1;fill-rule:nonzero;stroke:none"
         id="path3371"
         inkscape:connector-curvature="0" /><path
         d="m 660.96709,2368.6774 0,30.4511 c -7.70913,-0.7801 -13.9179,-1.4697 -18.65548,-2.0102 -4.76983,-0.5698 -9.44906,-1.6801 -14.0085,-3.3294 -3.98817,-1.3852 -7.07796,-3.4844 -9.29702,-6.3347 -2.18989,-2.7888 -3.30018,-6.5681 -3.30018,-11.2181 0,-6.8676 1.85971,-11.5468 5.51924,-14.1268 3.65953,-2.5492 9.08817,-3.8085 16.28745,-3.8085 3.95899,0 8.00705,0.8999 12.17643,2.6982 4.1402,1.7998 7.8888,4.4105 11.27806,7.6784 z m 0,-22.8847 c -3.11898,-2.6091 -5.93849,-4.9495 -8.39865,-7.0181 -2.48935,-2.13 -5.81871,-4.2293 -9.98808,-6.2994 -4.07878,-1.9794 -8.06848,-3.509 -11.93687,-4.498 -3.86992,-0.9905 -9.26784,-1.531 -16.22756,-1.531 -12.95655,0 -23.72476,4.3505 -32.27237,13.0778 -8.57833,8.6981 -12.83831,19.6767 -12.83831,32.9327 0,10.9479 2.16071,19.7059 6.50976,26.4307 4.34905,6.7186 10.61771,12.0275 18.77526,15.9573 8.27886,3.9897 18.11645,6.7785 29.60489,8.3679 11.48691,1.5603 23.81383,2.7903 37.04221,3.6595 l 0,0.7802 c 0,8.0976 -2.99919,13.6768 -8.93921,16.7665 -5.96767,3.1067 -14.87616,4.6486 -26.81456,4.6486 -5.36875,0 -11.66658,-0.989 -18.89504,-2.9685 -7.19928,-1.981 -14.24807,-4.4996 -21.11564,-7.5586 l -3.8991,0 0,35.5725 c 4.52873,1.3192 11.84779,2.8487 21.98483,4.6485 10.10787,1.7998 20.30634,2.6998 30.59388,2.6998 25.31419,0 43.76082,-4.2293 55.30915,-12.6571 11.5468,-8.3987 17.33632,-21.2662 17.33632,-38.5426 l 0,-100.0359 -45.83091,0 0,15.5672"
         style="fill:#ffffff;fill-opacity:1;fill-rule:nonzero;stroke:none"
         id="path3373"
         inkscape:connector-curvature="0" /><path
         d="m 807.3668,2326.4462 c -12.14725,0 -23.27481,1.531 -33.3535,4.5901 -10.07715,2.9992 -18.83515,7.7383 -26.24481,14.1268 -7.34825,6.3285 -13.07634,14.3064 -17.18583,23.9351 -4.10949,9.6272 -6.14888,20.9652 -6.14888,34.0492 0,14.0361 2.21907,25.9745 6.68944,35.8305 4.43812,9.8192 10.46721,17.9184 18.08574,24.2945 7.31906,6.089 15.92656,10.6177 25.85475,13.5094 9.92819,2.9101 20.24491,4.3967 30.98394,4.3967 8.12837,0 16.25674,-0.9475 24.38511,-2.8364 8.12683,-1.8428 16.28591,-4.8589 24.50489,-8.95 l 0,-39.3104 -5.90931,0 c -1.83054,1.7399 -4.07877,3.6595 -6.74933,5.7588 -2.66901,2.0993 -5.5776,4.0496 -8.72728,5.788 -3.30019,1.849 -7.0795,3.3785 -11.24734,4.6501 -4.2001,1.2592 -8.87932,1.8888 -14.03768,1.8888 -11.72801,0 -20.78547,-4.0495 -27.20462,-12.2071 -6.41916,-8.1284 -9.6272,-19.0455 -9.6272,-32.8129 0,-14.7027 3.41843,-25.6813 10.28754,-32.879 6.86758,-7.1993 15.95575,-10.8588 27.32441,-10.8588 5.75881,0 10.8281,0.691 15.20633,1.9795 4.37977,1.2608 8.12837,2.8502 11.27805,4.65 3.05908,1.829 5.66821,3.6887 7.85809,5.6682 2.18989,1.9196 4.07877,3.6887 5.63903,5.2198 l 5.90931,0 0,-39.143 c -2.63984,-1.1395 -5.66974,-2.4294 -9.11889,-3.9283 -3.44914,-1.4404 -6.95818,-2.6398 -10.5271,-3.6303 -4.47038,-1.2286 -8.63822,-2.1592 -12.53732,-2.7888 -3.86992,-0.6297 -9.02828,-0.9905 -15.38754,-0.9905"
         style="fill:#ffffff;fill-opacity:1;fill-rule:nonzero;stroke:none"
         id="path3375"
         inkscape:connector-curvature="0" /><path
         d="m 1054.7561,2330.2255 0,73.4609 c 0,7.2285 -0.1505,13.3481 -0.3901,18.3268 -0.2703,4.9495 -1.0504,9.0283 -2.3695,12.178 -1.3207,3.119 -3.3601,5.4286 -6.1197,6.8553 -2.7581,1.4527 -6.628,2.173 -11.6374,2.173 -3.4784,0 -6.9582,-0.7801 -10.3475,-2.2621 -3.4184,-1.5602 -7.1685,-3.7378 -11.1874,-6.5266 l 0,-104.2053 -45.83093,0 0,73.4609 c 0,7.1394 -0.14896,13.2284 -0.44996,18.2669 -0.33017,5.0094 -1.10876,9.0882 -2.42945,12.2379 -1.31915,3.119 -3.35854,5.4286 -6.11816,6.8553 -2.75962,1.4527 -6.59883,2.173 -11.48844,2.173 -3.7486,0 -7.43731,-0.8708 -11.03695,-2.6107 -3.59965,-1.7691 -7.10868,-3.8208 -10.49793,-6.178 l 0,-104.2053 -45.83092,0 0,146.8558 45.83092,0 0,-16.1969 c 7.46802,6.39 14.54752,11.338 21.17553,14.9069 6.62801,3.5997 14.06685,5.3872 22.34572,5.3872 8.99756,0 16.88637,-2.1469 23.66487,-6.4176 6.80768,-4.2784 11.9968,-10.6362 15.5672,-19.0947 8.8179,8.1882 17.126,14.4876 24.9242,18.8966 7.7982,4.4089 15.7161,6.6157 23.7247,6.6157 6.8092,0 12.8982,-1.1088 18.2961,-3.2864 5.4302,-2.1899 9.9881,-5.4409 13.7383,-9.8084 4.1079,-4.7084 7.1685,-10.2998 9.2079,-16.808 2.0686,-6.4975 3.0883,-14.9852 3.0883,-25.4233 l 0,-95.6269 -45.8294,0"
         style="fill:#ffffff;fill-opacity:1;fill-rule:nonzero;stroke:none"
         id="path3377"
         inkscape:connector-curvature="0" /><text
         xml:space="preserve"
         style="font-style:normal;font-weight:normal;font-size:320px;line-height:125%;font-family:Sans;letter-spacing:0px;word-spacing:0px;fill:#0492d2;fill-opacity:1;stroke:none;stroke-width:1px;stroke-linecap:butt;stroke-linejoin:miter;stroke-opacity:1"
         x="3207.0918"
         y="-2520.5715"
         id="text3413"
         sodipodi:linespacing="125%"
         transform="scale(1,-1)"><tspan
           sodipodi:role="line"
           x="3207.0918"
           y="-2520.5715"
           style="font-style:normal;font-variant:normal;font-weight:bold;font-stretch:normal;font-size:320px;font-family:'Trebuchet MS';-inkscape-font-specification:'Trebuchet MS Bold';text-align:center;text-anchor:middle;fill:#0492d2;fill-opacity:1"
           id="tspan3526">Binghamton University</tspan><tspan
           sodipodi:role="line"
           x="3207.0918"
           y="-2120.5715"
           style="font-style:normal;font-variant:normal;font-weight:bold;font-stretch:normal;font-size:320px;font-family:'Trebuchet MS';-inkscape-font-specification:'Trebuchet MS Bold';text-align:center;text-anchor:middle;fill:#0492d2;fill-opacity:1"
           id="tspan3368">Student Chapter</tspan></text>
<text
         xml:space="preserve"
         style="font-style:normal;font-weight:normal;font-size:320px;line-height:125%;font-family:Sans;letter-spacing:0px;word-spacing:0px;fill:#0492d2;fill-opacity:1;stroke:none;stroke-width:1px;stroke-linecap:butt;stroke-linejoin:miter;stroke-opacity:1"
         x="1164.2463"
         y="-1751.5165"
         id="text3413-4"
         sodipodi:linespacing="125%"
         transform="scale(1,-1)"><tspan
           sodipodi:role="line"
           x="1164.2463"
           y="-1751.5165"
           style="font-style:normal;font-variant:normal;font-weight:bold;font-stretch:normal;font-size:100.00000763px;font-family:'Trebuchet MS';-inkscape-font-specification:'Trebuchet MS Bold';text-align:center;text-anchor:middle;fill:#0492d2;fill-opacity:1"
           id="tspan3526-9" /></text>
</g><text
       xml:space="preserve"
       style="font-style:normal;font-weight:normal;font-size:32px;line-height:125%;font-family:Sans;letter-spacing:0px;word-spacing:0px;fill:#000000;fill-opacity:1;stroke:none;stroke-width:1px;stroke-linecap:butt;stroke-linejoin:miter;stroke-opacity:1"
       x="75.795715"
       y="-51.953873"
       id="text3379"
       sodipodi:linespacing="125%"
       transform="scale(1,-1)"><tspan
         sodipodi:role="line"
         id="tspan3381"
         x="75.795715"
         y="-51.953873" /></text>
</g></svg>