<?xml version="1.0" encoding="UTF-8" standalone="no"?>
<!-- Generator: Adobe Illustrator 15.1.0, SVG Export Plug-In . SVG Version: 6.00 Build 0)  -->

<svg
   xmlns:dc="http://purl.org/dc/elements/1.1/"
   xmlns:cc="http://creativecommons.org/ns#"
   xmlns:rdf="http://www.w3.org/1999/02/22-rdf-syntax-ns#"
   xmlns:svg="http://www.w3.org/2000/svg"
   xmlns="http://www.w3.org/2000/svg"
   xmlns:sodipodi="http://sodipodi.sourceforge.net/DTD/sodipodi-0.dtd"
   xmlns:inkscape="http://www.inkscape.org/namespaces/inkscape"
   version="1.1"
   id="SemiBold"
   x="0px"
   y="0px"
   width="135"
   height="47"
   viewBox="0 0 135 46.999999"
   enable-background="new 0 0 216.457 75.108"
   xml:space="preserve"
   inkscape:version="0.91 r13725"
   sodipodi:docname="google-play.svg"
   inkscape:export-filename="/home/drazard/GitHub/BinghamtonACM/img/png/google-play.png"
   inkscape:export-xdpi="56.318901"
   inkscape:export-ydpi="56.318901"><metadata
     id="metadata4600"><rdf:RDF><cc:Work
         rdf:about=""><dc:format>image/svg+xml</dc:format><dc:type
           rdf:resource="http://purl.org/dc/dcmitype/StillImage" /><dc:title></dc:title></cc:Work></rdf:RDF></metadata><defs
     id="defs4598" /><sodipodi:namedview
     pagecolor="#ffffff"
     bordercolor="#666666"
     borderopacity="1"
     objecttolerance="10"
     gridtolerance="10"
     guidetolerance="10"
     inkscape:pageopacity="0"
     inkscape:pageshadow="2"
     inkscape:window-width="1301"
     inkscape:window-height="744"
     id="namedview4596"
     showgrid="false"
     inkscape:zoom="2.744194"
     inkscape:cx="102.39801"
     inkscape:cy="37.553994"
     inkscape:window-x="65"
     inkscape:window-y="24"
     inkscape:window-maximized="1"
     inkscape:current-layer="SemiBold"
     fit-margin-top="0"
     fit-margin-left="0"
     fit-margin-right="0"
     fit-margin-bottom="0" /><g
     id="g4502"
     transform="matrix(0.62156299,0,0,0.62156299,0,0.31564695)"><path
       d="m 215.707,63.768 c 0,6.53 -4.797,10.591 -11.322,10.591 l -191.814,0 C 6.043,74.359 0.75,69.061 0.75,62.531 l 0,-49.957 C 0.75,6.045 6.043,0.75 12.571,0.75 l 191.813,0 c 6.525,0 11.322,5.295 11.322,11.824 l 0,51.194 z"
       id="path4504"
       inkscape:connector-curvature="0" /><path
       d="m 204.385,75.108 -191.814,0 C 5.64,75.108 0,69.466 0,62.53 L 0,12.574 C 0,5.641 5.64,0 12.571,0 l 191.813,0 c 6.77,0 12.072,5.523 12.072,12.574 l 0,51.194 c 0.001,6.783 -4.851,11.34 -12.071,11.34 z M 12.571,1.5 C 6.467,1.5 1.5,6.468 1.5,12.574 l 0,49.956 c 0,6.108 4.967,11.078 11.071,11.078 l 191.813,0 c 6.324,0 10.572,-3.955 10.572,-9.841 l 0,-51.193 C 214.956,6.365 210.311,1.5 204.384,1.5 l -191.813,0 z"
       id="path4506"
       inkscape:connector-curvature="0"
       style="fill:#ffffff" /></g><g
     id="g4508"
     transform="matrix(0.62156299,0,0,0.62156299,0,0.31564695)"><g
       id="g4510"><path
         d="m 147.652,53.585 -1.615,1.521 c -0.371,0.205 -0.742,0.443 -1.113,0.612 -1.121,0.509 -2.26,0.638 -3.273,0.638 -1.078,0 -2.768,-0.07 -4.49,-1.316 -2.396,-1.688 -3.443,-4.588 -3.443,-7.114 0,-5.231 4.26,-7.798 7.732,-7.798 1.215,0 2.463,0.304 3.477,0.945 1.686,1.113 2.121,2.562 2.363,3.34 l -7.934,3.205 -2.598,0.201 c 0.84,4.289 3.742,6.784 6.949,6.784 1.602,0 2.791,-0.521 3.883,-1.062 -0.002,0.002 0.217,-0.112 0.062,0.044 z m -4.787,-8.533 c 0.645,-0.234 0.979,-0.438 0.979,-0.906 0,-1.348 -1.523,-2.904 -3.344,-2.904 -1.35,0 -3.879,1.051 -3.879,4.695 0,0.569 0.066,1.176 0.102,1.781 l 6.142,-2.666 z"
         id="path4512"
         inkscape:connector-curvature="0"
         style="fill:#ffffff" /><path
         d="m 131.064,53.323 c 0,1.312 0.234,1.516 1.344,1.617 0.578,0.068 1.152,0.1 1.725,0.166 l -1.248,0.743 -5.947,0 c 0.779,-1.012 0.914,-1.112 0.914,-1.786 l 0,-0.753 -0.014,-20.063 -2.625,0 2.527,-1.218 4.824,0 c -1.045,0.605 -1.357,0.975 -1.492,2.155 l -0.008,19.139 z"
         id="path4514"
         inkscape:connector-curvature="0"
         style="fill:#ffffff" /><path
         d="m 121.842,41.784 c 0.773,0.637 2.393,1.988 2.393,4.553 0,2.499 -1.41,3.677 -2.83,4.792 -0.438,0.438 -0.945,0.915 -0.945,1.651 0,0.746 0.51,1.15 0.877,1.453 l 1.219,0.94 c 1.482,1.251 2.832,2.397 2.832,4.728 0,3.176 -3.072,6.375 -8.877,6.375 -4.889,0 -7.253,-2.328 -7.253,-4.824 0,-1.217 0.604,-2.938 2.601,-4.115 2.092,-1.279 4.928,-1.45 6.444,-1.551 -0.473,-0.611 -1.014,-1.252 -1.014,-2.299 0,-0.571 0.172,-0.912 0.338,-1.314 -0.369,0.035 -0.742,0.07 -1.08,0.07 -3.579,0 -5.602,-2.67 -5.602,-5.301 0,-1.553 0.707,-3.273 2.161,-4.521 1.925,-1.584 4.218,-1.857 6.041,-1.857 l 6.955,0 -2.162,1.221 -2.098,0 0,-10e-4 z m -2.391,14.981 c -0.277,-0.036 -0.443,-0.036 -0.777,-0.036 -0.305,0 -2.129,0.066 -3.541,0.54 -0.747,0.273 -2.906,1.08 -2.906,3.479 0,2.392 2.331,4.115 5.939,4.115 3.238,0 4.959,-1.553 4.959,-3.644 -0.002,-1.722 -1.115,-2.629 -3.674,-4.454 z m 0.969,-6.412 c 0.781,-0.777 0.848,-1.854 0.848,-2.466 0,-2.427 -1.445,-6.207 -4.252,-6.207 -0.875,0 -1.823,0.438 -2.36,1.118 -0.57,0.703 -0.742,1.615 -0.742,2.492 0,2.26 1.317,6.008 4.217,6.008 0.846,0 1.756,-0.411 2.289,-0.945 z"
         id="path4516"
         inkscape:connector-curvature="0"
         style="fill:#ffffff" /><path
         d="m 100.919,56.286 c -5.364,0 -8.234,-4.178 -8.234,-7.959 0,-4.418 3.608,-8.199 8.74,-8.199 4.961,0 8.068,3.884 8.068,7.962 0.001,3.981 -3.071,8.196 -8.574,8.196 z m 4.22,-2.729 c 0.816,-1.08 1.014,-2.428 1.014,-3.741 0,-2.973 -1.416,-8.641 -5.601,-8.641 -1.113,0 -2.234,0.436 -3.042,1.146 -1.318,1.181 -1.553,2.664 -1.553,4.119 0,3.334 1.647,8.834 5.737,8.834 1.321,0 2.668,-0.639 3.445,-1.717 z"
         id="path4518"
         inkscape:connector-curvature="0"
         style="fill:#ffffff" /><path
         d="m 82.96,56.286 c -5.365,0 -8.23,-4.178 -8.23,-7.959 0,-4.418 3.609,-8.199 8.739,-8.199 4.958,0 8.062,3.884 8.062,7.962 0,3.981 -3.067,8.196 -8.571,8.196 z m 4.221,-2.729 c 0.81,-1.08 1.012,-2.428 1.012,-3.741 0,-2.973 -1.42,-8.641 -5.601,-8.641 -1.117,0 -2.226,0.436 -3.036,1.146 -1.32,1.181 -1.554,2.664 -1.554,4.119 0,3.334 1.654,8.834 5.737,8.834 1.318,0 2.663,-0.639 3.442,-1.717 z"
         id="path4520"
         inkscape:connector-curvature="0"
         style="fill:#ffffff" /><path
         d="m 72.585,55.116 -4.524,1.035 c -1.833,0.289 -3.479,0.543 -5.222,0.543 -8.727,0 -12.051,-6.424 -12.051,-11.449 0,-6.141 4.711,-11.832 12.778,-11.832 1.707,0 3.35,0.251 4.846,0.658 2.371,0.667 3.479,1.487 4.173,1.969 l -2.628,2.496 -1.108,0.248 0.79,-1.26 c -1.07,-1.045 -3.037,-2.974 -6.77,-2.974 -4.991,0 -8.757,3.794 -8.757,9.333 0,5.949 4.3,11.545 11.194,11.545 2.026,0 3.069,-0.406 4.016,-0.787 l 0,-5.1 -4.776,0.257 2.532,-1.36 6.703,0 -0.819,0.789 c -0.222,0.188 -0.251,0.252 -0.313,0.504 -0.033,0.288 -0.063,1.204 -0.063,1.526 l -0.001,3.859 0,0 z"
         id="path4522"
         inkscape:connector-curvature="0"
         style="fill:#ffffff" /></g><g
       id="g4524"><path
         d="m 157.379,53.729 0,8.597 -1.707,0 0,-21.874 1.707,0 0,2.49 c 1.111,-1.608 3.143,-2.886 5.504,-2.886 4.232,0 7.084,3.211 7.084,8.294 0,5.049 -2.852,8.327 -7.084,8.327 -2.229,0.002 -4.223,-1.147 -5.504,-2.948 z m 10.754,-5.377 c 0,-3.831 -1.998,-6.753 -5.539,-6.753 -2.199,0 -4.301,1.729 -5.215,3.235 l 0,7.001 c 0.914,1.51 3.016,3.301 5.215,3.301 3.541,0 5.539,-2.948 5.539,-6.784 z"
         id="path4526"
         inkscape:connector-curvature="0"
         style="fill:#ffffff" /><path
         d="m 172.297,56.284 0,-21.87 1.707,0 0,21.871 -1.707,0 z"
         id="path4528"
         inkscape:connector-curvature="0"
         style="fill:#ffffff" /><path
         d="m 193.158,60.909 c 0.363,0.162 0.986,0.264 1.383,0.264 1.045,0 1.771,-0.428 2.424,-1.936 l 1.246,-2.82 -6.725,-15.965 1.902,0 5.77,13.834 5.713,-13.834 1.93,0 -8.201,19.314 c -0.85,1.99 -2.188,2.947 -4.027,2.947 -0.553,0 -1.279,-0.099 -1.707,-0.229 l 0.292,-1.575 z"
         id="path4530"
         inkscape:connector-curvature="0"
         style="fill:#ffffff" /><path
         d="m 188.172,56.237 c -0.115,-0.549 -0.201,-1.031 -0.264,-1.437 -0.053,-0.403 -0.082,-0.815 -0.082,-1.233 -0.586,0.858 -1.414,1.573 -2.475,2.137 -1.059,0.566 -2.064,0.846 -3.447,0.846 -1.662,0 -2.953,-0.409 -3.875,-1.239 -0.918,-0.829 -1.381,-1.952 -1.381,-3.372 0,-1.42 0.67,-2.572 2.004,-3.453 1.334,-0.885 3.059,-1.324 5.191,-1.324 l 3.982,0 0,-1.967 c 0,-1.134 -0.389,-2.023 -1.158,-2.67 -0.773,-0.646 -1.859,-0.975 -3.268,-0.975 -1.287,0 -2.332,0.299 -3.127,0.881 -0.787,0.594 -1.186,1.33 -1.186,2.217 l -1.746,0 -0.037,-0.084 c -0.062,-1.195 0.484,-2.246 1.648,-3.15 1.156,-0.905 2.674,-1.36 4.541,-1.36 1.859,0 3.367,0.448 4.502,1.342 1.135,0.886 1.703,2.164 1.703,3.837 l 0,7.811 c 0,0.561 0.025,1.103 0.098,1.631 0.072,0.529 0.188,1.057 0.34,1.566 l -1.965,0 0,-0.004 z m -6.057,-1.244 c 1.449,0 2.49,-0.323 3.557,-0.965 1.059,-0.638 1.777,-1.469 2.156,-2.475 l 0,-3.04 -4,0 c -1.529,0 -2.793,0.338 -3.789,1.021 -0.996,0.681 -1.502,1.504 -1.502,2.461 0,0.902 0.318,1.625 0.957,2.172 0.637,0.553 1.508,0.826 2.621,0.826 z"
         id="path4532"
         inkscape:connector-curvature="0"
         style="fill:#ffffff" /></g></g><g
     id="g4534"
     transform="matrix(0.62156299,0,0,0.62156299,0,0.31564695)"><polygon
       points="33.972,41.983 28.498,47.46 11.021,29.985 11.02,29.985 28.498,47.463 10.993,64.969 10.993,64.969 28.498,47.463 33.998,52.963 34.001,52.963 28.498,47.46 33.974,41.983 "
       id="polygon4536"
       style="fill:none" /><linearGradient
       id="SVGID_1_"
       gradientUnits="userSpaceOnUse"
       x1="879.42871"
       y1="495.52731"
       x2="856.35162"
       y2="509.96991"
       gradientTransform="matrix(0.7071,0.7071,0.7071,-0.7071,-947.4174,-225.4017)"><stop
         offset="0"
         style="stop-color:#D6FFA1"
         id="stop4539" /><stop
         offset="0.3264"
         style="stop-color:#93E2A7"
         id="stop4541" /><stop
         offset="1"
         style="stop-color:#00A3B5"
         id="stop4543" /></linearGradient><path
       d="M 33.972,41.983 12.636,30.252 c -0.604,-0.331 -1.163,-0.408 -1.615,-0.268 l 17.478,17.476 5.473,-5.477 z"
       id="path4545"
       inkscape:connector-curvature="0"
       style="fill:url(#SVGID_1_)" /><linearGradient
       id="SVGID_2_"
       gradientUnits="userSpaceOnUse"
       x1="866.00983"
       y1="507.8652"
       x2="895.93359"
       y2="500.0426"
       gradientTransform="matrix(0.7071,0.7071,0.7071,-0.7071,-947.4174,-225.4017)"><stop
         offset="0"
         style="stop-color:#FF177B"
         id="stop4548" /><stop
         offset="0.6721"
         style="stop-color:#FFA976"
         id="stop4550" /><stop
         offset="1"
         style="stop-color:#FFEC73"
         id="stop4552" /></linearGradient><path
       d="m 34.001,52.963 7.283,-4.005 c 1.477,-0.815 1.477,-2.143 0,-2.954 l -7.311,-4.021 -5.476,5.477 5.504,5.503 z"
       id="path4554"
       inkscape:connector-curvature="0"
       style="fill:url(#SVGID_2_)" /><linearGradient
       id="SVGID_3_"
       gradientUnits="userSpaceOnUse"
       x1="882.71289"
       y1="484.57419"
       x2="850.26837"
       y2="503.6626"
       gradientTransform="matrix(0.7071,0.7071,0.7071,-0.7071,-947.4174,-225.4017)"><stop
         offset="0"
         style="stop-color:#63FFD4"
         id="stop4557" /><stop
         offset="0.4854"
         style="stop-color:#32A0BA"
         id="stop4559" /><stop
         offset="0.8349"
         style="stop-color:#1262A9"
         id="stop4561" /><stop
         offset="1"
         style="stop-color:#064AA2"
         id="stop4563" /></linearGradient><path
       d="m 11.02,29.985 c -0.649,0.203 -1.069,0.86 -1.069,1.854 l 0.004,31.283 c 0,0.982 0.407,1.631 1.038,1.847 L 28.499,47.463 11.02,29.985 Z"
       id="path4565"
       inkscape:connector-curvature="0"
       style="fill:url(#SVGID_3_)" /><linearGradient
       id="SVGID_4_"
       gradientUnits="userSpaceOnUse"
       x1="894.49219"
       y1="499.72849"
       x2="874.51538"
       y2="473.41019"
       gradientTransform="matrix(0.7071,0.7071,0.7071,-0.7071,-947.4174,-225.4017)"><stop
         offset="0"
         style="stop-color:#FF4521"
         id="stop4568" /><stop
         offset="0.3411"
         style="stop-color:#D43E65"
         id="stop4570" /><stop
         offset="0.7935"
         style="stop-color:#9F36B9"
         id="stop4572" /><stop
         offset="1"
         style="stop-color:#8A33DB"
         id="stop4574" /></linearGradient><path
       d="m 10.993,64.969 c 0.454,0.153 1.024,0.082 1.643,-0.258 l 21.363,-11.748 -5.5,-5.5 -17.506,17.506 z"
       id="path4576"
       inkscape:connector-curvature="0"
       style="fill:url(#SVGID_4_)" /></g><g
     id="g4578"
     transform="matrix(0.62156299,0,0,0.62156299,0,0.31564695)"><g
       id="g4580"><path
         d="m 50.746,16.473 c 0,-3.361 2.497,-5.522 5.603,-5.522 2.081,0 3.441,0.992 4.29,2.209 l -1.521,0.881 c -0.576,-0.801 -1.585,-1.425 -2.77,-1.425 -2.112,0 -3.682,1.601 -3.682,3.857 0,2.225 1.569,3.857 3.682,3.857 1.089,0 2.049,-0.496 2.529,-0.96 l 0,-1.649 -3.201,0 0,-1.648 5.058,0 0,3.985 c -1.04,1.169 -2.545,1.953 -4.386,1.953 -3.105,0 -5.602,-2.192 -5.602,-5.538 z"
         id="path4582"
         inkscape:connector-curvature="0"
         style="fill:#ffffff" /><path
         d="m 63.051,21.803 0,-10.677 7.314,0 0,1.649 -5.442,0 0,2.753 5.331,0 0,1.648 -5.331,0 0,2.978 5.442,0 0,1.648 -7.314,0.001 0,0 z"
         id="path4584"
         inkscape:connector-curvature="0"
         style="fill:#ffffff" /><path
         d="m 75.548,21.803 0,-9.027 -3.233,0 0,-1.649 8.339,0 0,1.649 -3.232,0 0,9.027 -1.874,0 z"
         id="path4586"
         inkscape:connector-curvature="0"
         style="fill:#ffffff" /><path
         d="m 87.163,21.803 0,-10.677 1.872,0 0,10.677 -1.872,0 z"
         id="path4588"
         inkscape:connector-curvature="0"
         style="fill:#ffffff" /><path
         d="m 94.251,21.803 0,-9.027 -3.233,0 0,-1.649 8.339,0 0,1.649 -3.232,0 0,9.027 -1.874,0 z"
         id="path4590"
         inkscape:connector-curvature="0"
         style="fill:#ffffff" /><path
         d="m 105.402,16.473 c 0,-3.186 2.257,-5.522 5.458,-5.522 3.186,0 5.459,2.337 5.459,5.522 0,3.185 -2.274,5.522 -5.459,5.522 -3.201,0 -5.458,-2.337 -5.458,-5.522 z m 8.996,0 c 0,-2.209 -1.393,-3.857 -3.537,-3.857 -2.161,0 -3.538,1.648 -3.538,3.857 0,2.192 1.377,3.857 3.538,3.857 2.144,0 3.537,-1.665 3.537,-3.857 z"
         id="path4592"
         inkscape:connector-curvature="0"
         style="fill:#ffffff" /><path
         d="m 125.949,21.803 -5.57,-7.635 0,7.635 -1.871,0 0,-10.677 1.92,0 5.459,7.396 0,-7.396 1.873,0 0,10.677 -1.811,0 z"
         id="path4594"
         inkscape:connector-curvature="0"
         style="fill:#ffffff" /></g></g></svg>