<?xml version="1.0" encoding="UTF-8" standalone="no"?>
<!-- Created with Inkscape (http://www.inkscape.org/) -->

<svg
   xmlns:dc="http://purl.org/dc/elements/1.1/"
   xmlns:cc="http://creativecommons.org/ns#"
   xmlns:rdf="http://www.w3.org/1999/02/22-rdf-syntax-ns#"
   xmlns:svg="http://www.w3.org/2000/svg"
   xmlns="http://www.w3.org/2000/svg"
   xmlns:sodipodi="http://sodipodi.sourceforge.net/DTD/sodipodi-0.dtd"
   xmlns:inkscape="http://www.inkscape.org/namespaces/inkscape"
   id="svg3355"
   version="1.1"
   inkscape:version="0.91 r13725"
   xml:space="preserve"
   width="198.23422"
   height="100"
   viewBox="0 0 198.23423 99.999998"
   sodipodi:docname="logo.svg"
   inkscape:export-filename="/home/drazard/GitHub/BinghamtonACM/img/logo.png"
   inkscape:export-xdpi="93.303314"
   inkscape:export-ydpi="93.303314"><metadata
     id="metadata3361"><rdf:RDF><cc:Work
         rdf:about=""><dc:format>image/svg+xml</dc:format><dc:type
           rdf:resource="http://purl.org/dc/dcmitype/StillImage" /><dc:title></dc:title></cc:Work></rdf:RDF></metadata><defs
     id="defs3359" /><sodipodi:namedview
     pagecolor="#ffffff"
     bordercolor="#666666"
     borderopacity="1"
     objecttolerance="10"
     gridtolerance="10"
     guidetolerance="10"
     inkscape:pageopacity="0"
     inkscape:pageshadow="2"
     inkscape:window-width="1301"
     inkscape:window-height="744"
     id="namedview3357"
     showgrid="false"
     fit-margin-top="5"
     fit-margin-left="5"
     fit-margin-right="5"
     fit-margin-bottom="5"
     inkscape:zoom="1.5763889"
     inkscape:cx="161.25848"
     inkscape:cy="-7.1994978"
     inkscape:window-x="65"
     inkscape:window-y="24"
     inkscape:window-maximized="1"
     inkscape:current-layer="g3365" /><g
     id="g3363"
     inkscape:groupmode="layer"
     inkscape:label="ink_ext_XXXXXX"
     transform="matrix(1.25,0,0,-1.25,-0.07489025,298.62995)"><g
       id="g3365"
       transform="scale(0.1,0.1)"><path
         d="m 400.59912,1629.0396 -359.999998,360.004 359.999998,359.996 359.99999,-359.996 -359.99999,-360.004"
         style="fill:#0492d2;fill-opacity:1;fill-rule:nonzero;stroke:none"
         id="path3367"
         inkscape:connector-curvature="0" /><path
         d="m 621.32212,1989.0436 c 0,-121.918 -98.809,-220.727 -220.723,-220.727 -121.895,0 -220.723,98.809 -220.723,220.727 0,121.906 98.828,220.723 220.723,220.723 121.914,0 220.723,-98.817 220.723,-220.723"
         style="fill:#ffffff;fill-opacity:1;fill-rule:nonzero;stroke:none"
         id="path3369"
         inkscape:connector-curvature="0" /><path
         d="m 599.25112,1989.0436 c 0,-109.731 -88.925,-198.637 -198.652,-198.637 -109.707,0 -198.652,88.906 -198.652,198.637 0,109.719 88.945,198.664 198.652,198.664 109.727,0 198.652,-88.945 198.652,-198.664"
         style="fill:#0492d2;fill-opacity:1;fill-rule:nonzero;stroke:none"
         id="path3371"
         inkscape:connector-curvature="0" /><path
         d="m 284.93512,1965.2696 0,19.829 c -5.02,-0.508 -9.063,-0.957 -12.148,-1.309 -3.106,-0.371 -6.153,-1.094 -9.122,-2.168 -2.597,-0.902 -4.609,-2.269 -6.054,-4.125 -1.426,-1.816 -2.149,-4.277 -2.149,-7.305 0,-4.472 1.211,-7.519 3.594,-9.199 2.383,-1.66 5.918,-2.48 10.606,-2.48 2.578,0 5.214,0.586 7.929,1.757 2.696,1.172 5.137,2.872 7.344,5 z m 0,-14.902 c -2.031,-1.699 -3.867,-3.223 -5.469,-4.57 -1.621,-1.387 -3.789,-2.754 -6.504,-4.102 -2.656,-1.289 -5.254,-2.285 -7.773,-2.929 -2.52,-0.645 -6.035,-0.997 -10.567,-0.997 -8.437,0 -15.449,2.833 -21.015,8.516 -5.586,5.664 -8.36,12.813 -8.36,21.445 0,7.129 1.407,12.832 4.239,17.211 2.832,4.375 6.914,7.832 12.226,10.391 5.391,2.598 11.797,4.414 19.278,5.449 7.48,1.016 15.507,1.817 24.121,2.383 l 0,0.508 c 0,5.273 -1.953,8.906 -5.821,10.918 -3.886,2.023 -9.687,3.027 -17.461,3.027 -3.496,0 -7.597,-0.644 -12.304,-1.933 -4.688,-1.29 -9.278,-2.93 -13.75,-4.922 l -2.539,0 0,23.164 c 2.949,0.859 7.715,1.855 14.316,3.027 6.582,1.172 13.223,1.758 19.922,1.758 16.484,0 28.496,-2.754 36.016,-8.242 7.519,-5.469 11.289,-13.848 11.289,-25.098 l 0,-65.141 -29.844,0 0,10.137"
         style="fill:#ffffff;fill-opacity:1;fill-rule:nonzero;stroke:none"
         id="path3373"
         inkscape:connector-curvature="0" /><path
         d="m 380.26712,1937.7696 c -7.91,0 -15.156,0.997 -21.719,2.989 -6.562,1.953 -12.265,5.039 -17.09,9.199 -4.785,4.121 -8.515,9.316 -11.191,15.586 -2.676,6.269 -4.004,13.652 -4.004,22.172 0,9.14 1.445,16.914 4.356,23.332 2.89,6.394 6.816,11.668 11.777,15.82 4.766,3.965 10.371,6.914 16.836,8.797 6.465,1.895 13.183,2.863 20.176,2.863 5.293,0 10.586,-0.617 15.879,-1.847 5.292,-1.2 10.605,-3.164 15.957,-5.828 l 0,-25.598 -3.848,0 c -1.192,1.133 -2.656,2.383 -4.395,3.75 -1.738,1.367 -3.632,2.637 -5.683,3.769 -2.149,1.204 -4.61,2.2 -7.324,3.028 -2.735,0.82 -5.782,1.23 -9.141,1.23 -7.637,0 -13.535,-2.637 -17.715,-7.949 -4.18,-5.293 -6.269,-12.402 -6.269,-21.367 0,-9.574 2.226,-16.723 6.699,-21.41 4.472,-4.688 10.39,-7.071 17.793,-7.071 3.75,0 7.051,0.45 9.902,1.289 2.852,0.821 5.293,1.856 7.344,3.028 1.992,1.191 3.691,2.402 5.117,3.691 1.426,1.25 2.656,2.402 3.672,3.399 l 3.848,0 0,-25.489 c -1.719,-0.742 -3.692,-1.582 -5.938,-2.558 -2.246,-0.938 -4.531,-1.719 -6.855,-2.364 -2.911,-0.8 -5.625,-1.406 -8.164,-1.816 -2.52,-0.41 -5.879,-0.645 -10.02,-0.645"
         style="fill:#ffffff;fill-opacity:1;fill-rule:nonzero;stroke:none"
         id="path3375"
         inkscape:connector-curvature="0" /><path
         d="m 541.36112,1940.2306 0,47.836 c 0,4.707 -0.098,8.692 -0.254,11.934 -0.176,3.223 -0.684,5.879 -1.543,7.93 -0.86,2.031 -2.188,3.535 -3.985,4.464 -1.796,0.946 -4.316,1.415 -7.578,1.415 -2.265,0 -4.531,-0.508 -6.738,-1.473 -2.226,-1.016 -4.668,-2.434 -7.285,-4.25 l 0,-67.856 -29.844,0 0,47.836 c 0,4.649 -0.097,8.614 -0.293,11.895 -0.215,3.262 -0.722,5.918 -1.582,7.969 -0.859,2.031 -2.187,3.535 -3.984,4.464 -1.797,0.946 -4.297,1.415 -7.481,1.415 -2.441,0 -4.843,-0.567 -7.187,-1.7 -2.344,-1.152 -4.629,-2.488 -6.836,-4.023 l 0,-67.856 -29.844,0 0,95.629 29.844,0 0,-10.547 c 4.863,4.161 9.473,7.383 13.789,9.707 4.316,2.344 9.16,3.508 14.551,3.508 5.859,0 10.996,-1.398 15.41,-4.179 4.433,-2.786 7.812,-6.926 10.137,-12.434 5.742,5.332 11.152,9.434 16.23,12.305 5.078,2.871 10.234,4.308 15.449,4.308 4.434,0 8.399,-0.722 11.914,-2.14 3.536,-1.426 6.504,-3.543 8.946,-6.387 2.675,-3.066 4.668,-6.707 5.996,-10.945 1.347,-4.231 2.011,-9.758 2.011,-16.555 l 0,-62.27 -29.843,0"
         style="fill:#ffffff;fill-opacity:1;fill-rule:nonzero;stroke:none"
         id="path3377"
         inkscape:connector-curvature="0" /><text
         xml:space="preserve"
         style="font-style:normal;font-weight:normal;font-size:320px;line-height:125%;font-family:Sans;letter-spacing:0px;word-spacing:0px;fill:#0492d2;fill-opacity:1;stroke:none;stroke-width:1px;stroke-linecap:butt;stroke-linejoin:miter;stroke-opacity:1"
         x="1167.1272"
         y="-2116.1309"
         id="text3413"
         sodipodi:linespacing="125%"
         transform="scale(1,-1)"><tspan
           sodipodi:role="line"
           x="1167.1272"
           y="-2116.1309"
           style="font-style:normal;font-variant:normal;font-weight:bold;font-stretch:normal;font-size:140.00001526px;font-family:'Trebuchet MS';-inkscape-font-specification:'Trebuchet MS Bold';text-align:center;text-anchor:middle;fill:#0492d2;fill-opacity:1"
           id="tspan3458">Binghamton</tspan><tspan
           sodipodi:role="line"
           x="1167.1272"
           y="-1941.1309"
           style="font-style:normal;font-variant:normal;font-weight:bold;font-stretch:normal;font-size:140.00001526px;font-family:'Trebuchet MS';-inkscape-font-specification:'Trebuchet MS Bold';text-align:center;text-anchor:middle;fill:#0492d2;fill-opacity:1"
           id="tspan3526">University</tspan></text>
<text
         xml:space="preserve"
         style="font-style:normal;font-weight:normal;font-size:320px;line-height:125%;font-family:Sans;letter-spacing:0px;word-spacing:0px;fill:#0492d2;fill-opacity:1;stroke:none;stroke-width:1px;stroke-linecap:butt;stroke-linejoin:miter;stroke-opacity:1"
         x="1164.2463"
         y="-1751.5165"
         id="text3413-4"
         sodipodi:linespacing="125%"
         transform="scale(1,-1)"><tspan
           sodipodi:role="line"
           x="1164.2463"
           y="-1751.5165"
           style="font-style:normal;font-variant:normal;font-weight:bold;font-stretch:normal;font-size:100.00000763px;font-family:'Trebuchet MS';-inkscape-font-specification:'Trebuchet MS Bold';text-align:center;text-anchor:middle;fill:#0492d2;fill-opacity:1"
           id="tspan3526-9">Student Chapter</tspan></text>
</g><text
       xml:space="preserve"
       style="font-style:normal;font-weight:normal;font-size:32px;line-height:125%;font-family:Sans;letter-spacing:0px;word-spacing:0px;fill:#000000;fill-opacity:1;stroke:none;stroke-width:1px;stroke-linecap:butt;stroke-linejoin:miter;stroke-opacity:1"
       x="75.795715"
       y="-51.953873"
       id="text3379"
       sodipodi:linespacing="125%"
       transform="scale(1,-1)"><tspan
         sodipodi:role="line"
         id="tspan3381"
         x="75.795715"
         y="-51.953873" /></text>
</g></svg>